<?xml version="1.0" encoding="UTF-8" standalone="no"?>
<!-- Created with Inkscape (http://www.inkscape.org/) -->
<svg xmlns:inkscape="http://www.inkscape.org/namespaces/inkscape" xmlns:rdf="http://www.w3.org/1999/02/22-rdf-syntax-ns#" xmlns="http://www.w3.org/2000/svg" xmlns:xlink="http://www.w3.org/1999/xlink" xmlns:ns1="http://sozi.baierouge.fr" xmlns:cc="http://creativecommons.org/ns#" xmlns:sodipodi="http://sodipodi.sourceforge.net/DTD/sodipodi-0.dtd" xmlns:dc="http://purl.org/dc/elements/1.1/" id="svg2" xml:space="preserve" viewBox="0 0 103.6 28.506" version="1.1" inkscape:version="0.91 r13725">
  <defs id="defs6">
    <clipPath id="clipPath18">
      <path id="path20" d="m0-0.19509h83v23h-83v-23z" inkscape:connector-curvature="0"/>
    </clipPath>
    <mask id="mask22">
      <g id="g24">
        <g id="g26" clip-path="url(#clipPath18)">
          <path id="path28" style="fill:#000000;fill-opacity:.21090" d="m0-0.19509h83v23h-83v-23z" inkscape:connector-curvature="0"/>
        </g>
      </g>
    </mask>
    <clipPath id="clipPath34">
      <path id="path36" d="m0-0.19509h83v23h-83v-23z" inkscape:connector-curvature="0"/>
    </clipPath>
    <clipPath id="clipPath38">
      <path id="path40" d="m0 0h83v23h-83v-23z" inkscape:connector-curvature="0"/>
    </clipPath>
    <clipPath id="clipPath62">
      <path id="path64" d="m4 0.80491h75v22h-75v-22z" inkscape:connector-curvature="0"/>
    </clipPath>
    <mask id="mask66">
      <g id="g68">
        <g id="g70" clip-path="url(#clipPath62)">
          <path id="path72" style="fill:#000000;fill-opacity:.14840" d="m4 0.80491h75v22h-75v-22z" inkscape:connector-curvature="0"/>
        </g>
      </g>
    </mask>
    <clipPath id="clipPath78">
      <path id="path80" d="m4 0.80491h75v22h-75v-22z" inkscape:connector-curvature="0"/>
    </clipPath>
    <clipPath id="clipPath82">
      <path id="path84" d="m4 1h75v22h-75v-22z" inkscape:connector-curvature="0"/>
    </clipPath>
    <clipPath id="clipPath106">
      <path id="path108" d="m12 2.8049h64v17h-64v-17z" inkscape:connector-curvature="0"/>
    </clipPath>
    <mask id="mask110">
      <g id="g112">
        <g id="g114" clip-path="url(#clipPath106)">
          <path id="path116" style="fill:#000000;fill-opacity:.14840" d="m12 2.8049h64v17h-64v-17z" inkscape:connector-curvature="0"/>
        </g>
      </g>
    </mask>
    <clipPath id="clipPath122">
      <path id="path124" d="m12 2.8049h64v17h-64v-17z" inkscape:connector-curvature="0"/>
    </clipPath>
    <clipPath id="clipPath126">
      <path id="path128" d="m12 3h64v17h-64v-17z" inkscape:connector-curvature="0"/>
    </clipPath>
  </defs>
  <g id="g10" transform="matrix(1.25 0 0 -1.25 0 28.506)">
    <g id="g12">
      <g id="g14">
        <g id="g30" mask="url(#mask22)">
          <g id="g42">
            <g id="g44" clip-path="url(#clipPath34)">
              <g id="g46" transform="translate(0 -.19509)">
                <g id="g50">
                  <g id="g52" clip-path="url(#clipPath38)">
                    <g id="g54">
                      <path id="path56" style="fill-rule:evenodd;fill:#29180d" d="m81.238 13.516c0.856-0.106 1.403-0.215 1.641-0.321-0.266-0.187-0.774-0.414-1.52-0.679-0.664-0.266-1.16-0.536-1.48-0.801-0.664-0.613-1.106-1.16-1.32-1.641-0.079-0.183-0.145-0.48-0.2-0.879-0.16-0.238-0.347-0.398-0.558-0.48-0.293-0.078-0.535-0.16-0.723-0.238-0.051-0.028-0.25-0.149-0.598-0.364-0.855-0.636-1.48-1.199-1.878-1.679-0.536-0.586-1-1-1.403-1.239-0.265-0.133-0.652-0.254-1.16-0.359-0.613-0.106-1-0.188-1.16-0.242l-0.399-0.16-0.32-0.239c-0.055-0.054-0.254-0.293-0.601-0.718-0.211-0.243-0.481-0.415-0.797-0.52-0.27-0.055-0.657-0.082-1.16-0.082-0.563 0.027-0.961 0.039-1.204 0.039-0.746 0.082-1.519 0.055-2.32-0.078-0.531-0.055-1.223-0.055-2.078 0-1.254 0.105-1.934 0.16-2.039 0.16-0.242 0.027-0.535-0.016-0.883-0.121-0.398-0.105-0.691-0.16-0.879-0.16-0.187 0-0.773 0.094-1.758 0.281h-1.839c-0.188-0.055-0.321-0.133-0.403-0.242-0.078-0.371-0.16-0.613-0.238-0.719-0.348-0.558-1.254-0.867-2.723-0.922-0.265 0-0.863 0.043-1.797 0.121-0.695 0.082-1.281 0.082-1.761 0-0.293-0.05-0.719-0.05-1.282 0-0.558 0.028-0.972 0.028-1.238 0-0.238-0.027-0.558-0.121-0.961-0.277-0.344-0.137-0.679-0.203-1-0.203-1.039 0-1.734-0.039-2.078-0.117-0.508-0.215-0.922-0.336-1.242-0.364-1.117-0.16-2-0.078-2.641 0.243-0.449 0.238-0.703 0.359-0.758 0.359-0.027 0-0.253-0.039-0.679-0.121-1.547-0.238-2.469-0.332-2.762-0.277-0.664 0.183-1.227 0.277-1.68 0.277-0.214-0.027-0.386-0.039-0.519-0.039-0.215 0-0.371 0.039-0.481 0.121-0.105 0.078-0.16 0.211-0.16 0.398-0.027 0.215-0.066 0.348-0.121 0.403-0.238 0.211-1.066 0.293-2.476 0.238-1.309-0.027-2.028 0.121-2.161 0.441-1.043-0.082-1.773-0.066-2.203 0.039-0.211 0.051-0.426 0.145-0.636 0.282-0.403 0.238-0.614 0.371-0.641 0.398-0.348 0.188-0.895 0.32-1.641 0.399-0.851 0.082-1.453 0.148-1.8 0.203-0.215 0.027-1.172 0.051-2.879 0.078-1.121 0-2.039 0.199-2.762 0.601-0.16 0.079-0.664 0.254-1.52 0.52-0.187 0.055-0.48 0.254-0.879 0.598-0.855 0.136-1.492 0.281-1.921 0.441-1.118 0.055-1.907 0.227-2.36 0.52-0.187 0.132-0.332 0.293-0.437 0.48l-0.524 0.281c-0.133 0.106-0.316 0.293-0.558 0.559-0.239 0.242-0.442 0.398-0.602 0.48-0.105 0.055-0.305 0.094-0.598 0.121-0.292 0.024-0.492 0.079-0.601 0.161l-0.32 0.32c-0.692 0.023-1.133 0.051-1.321 0.078-0.504 0.105-0.918 0.305-1.238 0.602l1.121 0.238c0.293 0.215 0.559 0.359 0.801 0.441 0.133 0.051 0.332 0.106 0.598 0.16 0.132 0.079 0.32 0.161 0.558 0.239 0.297 0.082 0.481 0.133 0.563 0.16l0.281 0.16c0.078 0.105 0.183 0.398 0.316 0.879 0.11 0.402 0.254 0.695 0.442 0.883 0.453 0.371 1.093 0.652 1.922 0.84 0.503 0.105 1.253 0.226 2.238 0.359l0.082 0.039 1.199 0.48c0.078 0.161 0.227 0.305 0.438 0.442 0.242 0.211 0.402 0.359 0.48 0.437 0.242 0.243 0.348 0.43 0.32 0.563-0.054 0.211-0.054 0.383 0 0.519 0.133 0.399 0.586 0.68 1.36 0.84 0.426 0.106 1.093 0.211 2 0.321l0.359 0.199c0.055 0.16 0.227 0.386 0.524 0.679 0.343 0.372 0.984 0.852 1.918 1.442 0.453 0.293 1.121 0.437 2 0.437 1.039 0.348 2.16 0.52 3.359 0.52 0.746 0.32 1.32 0.535 1.723 0.641 0.664 0.132 1.453 0.187 2.359 0.16 0.504 0 1.277-0.039 2.32-0.121 1.52 0.109 2.598 0.175 3.239 0.203 1.175 0.16 2.027 0.304 2.558 0.437 0.188 0.028 0.481 0.121 0.883 0.281 0.371 0.106 0.664 0.172 0.879 0.2 0.613 0.082 1.558 0.054 2.84-0.078 0.828 0.293 1.695 0.425 2.601 0.398l0.641-0.121c1.332 0.187 2.453 0.269 3.359 0.242 0.504-0.027 1.184-0.055 2.039-0.082 0.719-0.078 1.348-0.305 1.879-0.68 0.133-0.078 0.496-0.386 1.082-0.918 0.16-0.082 0.52-0.269 1.078-0.562 0.106 0 0.348 0.043 0.719 0.121 0.297 0.055 0.524 0.055 0.684 0 0.105-0.055 0.238-0.187 0.398-0.398 0.16-0.215 0.305-0.348 0.442-0.403 0.183-0.078 0.41-0.133 0.679-0.16 0.321 0 0.531-0.012 0.641-0.039l2.598-0.281c0.402-0.051 0.878-0.227 1.441-0.52 0.266-0.078 0.707-0.144 1.32-0.199l1.321-0.398 0.918-0.161 0.121-0.043c0.105 0 0.437 0.016 1 0.043 0.425 0.051 0.746 0.039 0.961-0.043 0.183-0.05 0.371-0.171 0.558-0.359 0.238-0.184 0.414-0.305 0.52-0.359l0.16-0.078c0.265-0.028 0.707 0.011 1.32 0.117 1.465 0.054 2.602-0.305 3.399-1.078h0.363l0.637-0.082c0.453 0.054 1.32-0.118 2.601-0.52 0.746-0.211 1.918-0.504 3.52-0.879 0.64-0.105 1-0.215 1.082-0.32 0.05-0.051 0.078-0.16 0.078-0.32 0-0.161 0.015-0.254 0.039-0.282 0.266-0.293 0.723-0.492 1.359-0.597z" inkscape:connector-curvature="0"/>
                    </g>
                  </g>
                </g>
              </g>
            </g>
          </g>
        </g>
      </g>
      <g id="g58">
        <g id="g74" mask="url(#mask66)">
          <g id="g86">
            <g id="g88" clip-path="url(#clipPath78)">
              <g id="g90" transform="translate(0 -.19509)">
                <g id="g94">
                  <g id="g96" clip-path="url(#clipPath82)">
                    <g id="g98">
                      <path id="path100" style="fill-rule:evenodd;fill:#17130d" d="m77.441 13.676c0.344-0.082 0.68-0.254 1-0.52-0.109-0.32-0.296-0.562-0.562-0.722-0.344-0.161-0.613-0.305-0.801-0.438-0.16-0.16-0.277-0.348-0.359-0.562-0.133-0.293-0.227-0.477-0.278-0.559-0.16-0.293-0.496-0.652-1-1.078-0.214-0.215-0.601-0.442-1.16-0.68-0.586-0.242-0.972-0.429-1.16-0.562-0.137-0.106-0.336-0.348-0.601-0.719-0.266-0.348-0.481-0.586-0.641-0.719-0.184-0.16-0.52-0.308-1-0.441-0.399-0.106-0.707-0.281-0.918-0.52-0.32-0.426-0.547-0.707-0.68-0.84-0.187-0.16-0.508-0.308-0.961-0.441-0.695-0.215-1.359-0.359-2-0.441-1.254-0.399-2.867-0.637-4.84-0.719-2.242-0.027-3.921-0.067-5.039-0.121-0.722-0.024-1.855-0.012-3.402 0.043l-1.32-0.52c-1.039-0.48-2.16-0.722-3.36-0.722-1.304 0.082-2.398 0.121-3.281 0.121l-2.16-0.481v-0.039l-2.316-0.199c-2.348-0.215-4.149-0.109-5.403 0.32-1.574 0.449-2.679 0.68-3.32 0.68-0.961 0-1.652 0.039-2.078 0.117-0.266 0.055-0.586 0.176-0.961 0.359-0.375 0.215-0.668 0.375-0.879 0.481l-2.84 0.32c-1.68-0.051-2.816-0.023-3.402 0.082-1.094 0.028-1.879 0.094-2.36 0.199-0.132 0.055-0.398 0.172-0.8 0.36-0.321 0.16-0.641 0.254-0.957 0.281-0.536 0.027-0.883 0.066-1.043 0.121l-0.36 0.238-2.359 0.399c-1.094 0.187-1.84 0.32-2.238 0.402-0.696 0.184-1.309 0.438-1.84 0.758-0.43 0.109-0.75 0.203-0.961 0.281-0.403 0.106-0.723 0.239-0.961 0.399-0.106 0.082-0.281 0.254-0.52 0.523-0.187 0.238-0.359 0.399-0.519 0.477-0.106 0.054-0.309 0.094-0.602 0.121-0.238 0.027-0.414 0.066-0.519 0.121-0.239 0.266-0.387 0.414-0.442 0.437-0.133 0.082-0.465 0.243-1 0.481 0.188 0.082 0.375 0.215 0.563 0.402 0.238 0.211 0.414 0.344 0.519 0.399 0.028 0 0.387 0.148 1.078 0.441l0.364 0.16 0.879 0.559c1.597 1.066 2.824 1.828 3.679 2.281 0.266 0.16 0.664 0.32 1.2 0.481 0.585 0.183 0.988 0.332 1.199 0.437 0.426 0.242 0.922 0.586 1.48 1.043 0.188 0.133 0.442 0.383 0.762 0.758 0.293 0.375 0.559 0.625 0.801 0.762 0.238 0.132 0.625 0.277 1.156 0.437l1.043 0.563c0.16 0.425 0.586 0.812 1.277 1.16 1.227 0.636 2.657 0.945 4.282 0.918h0.718c1.602 0.293 3.508 0.519 5.723 0.679 1.254 0.106 3.078 0.215 5.48 0.321l2.161 0.16c0.449 0.133 1.066 0.347 1.839 0.64 0.637 0.188 1.278 0.254 1.918 0.2 0.028 0 0.414-0.094 1.161-0.282 0.375-0.078 1.132-0.117 2.281-0.117 0.961 0 1.558-0.054 1.801-0.16 0.078-0.027 0.238-0.16 0.476-0.402l0.602-0.16c0.16-0.024 0.441-0.039 0.84-0.039 0.613-0.028 1.48-0.372 2.601-1.04 1.094-0.613 1.973-0.921 2.641-0.921 0.211 0 0.558 0.015 1.039 0.043 0.426 0.023 0.773 0.011 1.039-0.043 0.32-0.051 0.746-0.239 1.281-0.559 2.371-0.266 4.824-0.758 7.359-1.48 0.399-0.133 1.481-0.426 3.239-0.879 0.426-0.028 0.855-0.028 1.281 0 0.48 0.027 0.934-0.094 1.359-0.36 0.243-0.16 0.614-0.414 1.121-0.761l0.559-0.2c0.055 0 0.309-0.011 0.762-0.039 0.32 0 0.57-0.054 0.758-0.16 0.347-0.133 0.75-0.414 1.203-0.84l0.597-0.281c0.293-0.078 0.653-0.145 1.082-0.199z" inkscape:connector-curvature="0"/>
                    </g>
                  </g>
                </g>
              </g>
            </g>
          </g>
        </g>
      </g>
      <g id="g102">
        <g id="g118" mask="url(#mask110)">
          <g id="g130">
            <g id="g132" clip-path="url(#clipPath122)">
              <g id="g134" transform="translate(0 -.19509)">
                <g id="g138">
                  <g id="g140" clip-path="url(#clipPath126)">
                    <g id="g142">
                      <path id="path144" style="fill-rule:evenodd;fill:#ffc996" d="m72.68 14.797 0.398-0.281c0.055-0.028 0.203-0.055 0.442-0.082 0.187-0.051 0.187-0.094 0-0.118-0.266-0.054-0.055-0.16 0.64-0.32 0.934-0.242 1.535-0.469 1.801-0.68-0.106-0.293-0.293-0.496-0.563-0.601-0.398-0.16-0.652-0.281-0.757-0.36-0.536-0.425-0.907-0.812-1.121-1.16-0.079-0.16-0.293-0.375-0.641-0.64-0.371-0.321-0.613-0.52-0.719-0.598-0.558-0.562-1.039-0.988-1.441-1.281-0.797-0.508-1.36-0.879-1.68-1.121-0.184-0.16-0.465-0.305-0.84-0.442-0.32-0.105-0.574-0.277-0.758-0.519-0.269-0.293-0.574-0.481-0.921-0.559-0.454-0.055-0.852-0.133-1.2-0.238-0.718-0.215-1.359-0.363-1.922-0.442-1.226-0.375-2.773-0.601-4.636-0.679-2.137-0.028-3.735-0.055-4.801-0.082h-3.242l-0.239-0.078c-0.906-0.055-2.507-0.188-4.8-0.403-2.028-0.183-3.625-0.293-4.801-0.316-1.867-0.027-4.027 0.277-6.481 0.918-2.824 0.855-4.933 1.492-6.32 1.922-1.519 0.453-3.316 0.851-5.398 1.199-2.426 0.348-4.266 0.613-5.52 0.801-1.601 0.265-3.148 0.664-4.64 1.199 1.335 0.48 2.546 1.078 3.64 1.801 0.879 0.531 1.238 1.343 1.078 2.437 1.442 0.586 2.563 1.106 3.364 1.563 2.476 1.304 4.906 2.254 7.277 2.84 2.375 0.585 4.961 0.89 7.762 0.918 6.105 0.054 13.664-0.2 22.679-0.758 1.442-0.242 2.868-0.575 4.282-1 0.613-0.188 1.636-0.453 3.078-0.801l1.199-0.039c0.453 0.023 0.894-0.082 1.32-0.32l1.082-0.723 0.52-0.16c0.133-0.024 0.387-0.051 0.758-0.078 0.296 0 0.535-0.039 0.722-0.121 0.907-0.372 1.371-0.575 1.399-0.598z" inkscape:connector-curvature="0"/>
                    </g>
                  </g>
                </g>
              </g>
            </g>
          </g>
        </g>
      </g>
      <path id="path146" style="fill-rule:evenodd;fill:#57432c" d="m14.641 13.321c0.453 0.293 1.011 0.773 1.679 1.441 0.801 0.797 1.348 1.332 1.641 1.598 2.133 1.839 5.066 3.093 8.801 3.761 1.679 0.293 4.863 0.547 9.558 0.758 1.039 0.055 2.719 0.199 5.039 0.442 2.082 0.16 3.746 0.078 5-0.243 0.641-0.16 1.68-0.625 3.121-1.398 1.2-0.641 2.282-0.973 3.239-1 3.176-0.078 6.375-0.574 9.601-1.481 0.719-0.214 1.961-0.546 3.719-1 1.816-0.503 3.574-1.105 5.281-1.8 1.735-0.719 1.614-1.907-0.359-3.559-2.481-1.68-3.856-2.652-4.121-2.918-1.414-1.469-3.371-2.375-5.879-2.723-0.188-0.023-2.441-0.117-6.762-0.277-1.547 0-2.719 0.012-3.519 0.039-1.438 0-2.598-0.094-3.481-0.281-2.023-0.531-3.558-0.895-4.597-1.078-1.762-0.348-3.336-0.414-4.723-0.203-0.746 0.109-2.399 0.414-4.957 0.922-2.082 0.425-3.762 0.691-5.043 0.8-1.813 0.157-5.758 0.719-11.84 1.68-1.227 0.184-2.066 0.359-2.519 0.52-0.747 0.238-1.454 0.664-2.118 1.281-0.562 0.449-0.906 0.812-1.043 1.078-0.211 0.426-0.171 0.934 0.121 1.519 0.293 0.536 0.934 0.961 1.922 1.282 1.332 0.453 2.078 0.734 2.239 0.84z" inkscape:connector-curvature="0"/>
      <path id="path148" style="fill-rule:evenodd;fill:#614b31" d="m61.922 17.121-0.363 0.278 0.761-0.2c0.719-0.214 1.961-0.546 3.719-1 1.816-0.503 3.574-1.105 5.281-1.8 1.735-0.719 1.614-1.907-0.359-3.559-2.481-1.68-3.856-2.652-4.121-2.918-0.531-0.562-1.145-1.043-1.84-1.441-0.695 0.32-1.238 0.668-1.641 1.039-1.519 1.254-1.972 2.601-1.359 4.039 0.105 0.242 0.613 0.801 1.52 1.68 0.64 0.613 0.878 1.296 0.718 2.042-0.105 0.426-0.426 0.786-0.961 1.079-0.824 0.425-1.277 0.679-1.355 0.761z" inkscape:connector-curvature="0"/>
      <path id="path150" style="fill-rule:evenodd;fill:#6b5336" d="m46.68 20.121c0 0.239-0.078 0.547-0.239 0.918 0.637-0.187 1.414-0.504 2.321-0.961 0.984-0.531 1.679-0.863 2.078-1l0.238-0.718c0.16-0.985-0.039-1.852-0.598-2.598-0.242-0.297-0.453-0.481-0.64-0.563-0.16-0.078-0.453-0.093-0.879-0.039-0.426 0.051-0.816 0.239-1.16 0.559-0.242 0.187-0.547 0.535-0.922 1.043-0.481 0.613-0.652 1.172-0.52 1.68 0.215 0.879 0.321 1.437 0.321 1.679z" inkscape:connector-curvature="0"/>
      <path id="path152" style="fill-rule:evenodd;fill:#54412b" d="m17.199 15.68-0.437-0.84c-0.11-0.238-0.27-0.508-0.481-0.801-0.082-0.238 0-0.558 0.239-0.961 0.347-0.531 0.949-0.746 1.8-0.636l-0.84-1.723c-1.921-0.668-3.359-1.16-4.32-1.48-1.707-0.532-2.629-0.254-2.762 0.839h-0.16c-0.05 0.375 0.028 0.75 0.242 1.121 0.293 0.536 0.934 0.961 1.918 1.282 1.336 0.453 2.082 0.73 2.243 0.84 0.398 0.238 0.839 0.597 1.32 1.078 0.293 0.269 0.707 0.695 1.238 1.281z" inkscape:connector-curvature="0"/>
      <path id="path154" style="fill-rule:evenodd;fill:#473725" d="m23.961 14c-0.348 0-1.094-0.039-2.242-0.121-0.934-0.051-1.692-0.051-2.278 0-0.054 0.563 0.2 1.172 0.758 1.84 0.828 0.988 1.254 1.508 1.281 1.562 0.293 0.504 0.348 0.958 0.161 1.36 2.507 1.094 6.054 1.773 10.64 2.039-0.027-0.641 0.344-1.16 1.117-1.559 0.403-0.215 0.977-0.441 1.723-0.679-0.508 0-1.016-0.11-1.519-0.321-0.082-0.293-0.188-0.48-0.321-0.562-0.16-0.078-0.402-0.145-0.722-0.199-0.348-0.055-0.586-0.106-0.719-0.161-0.774-0.293-1.371-0.613-1.801-0.96-0.133-0.106-0.371-0.411-0.719-0.918-0.32-0.403-0.613-0.68-0.879-0.84-0.562-0.321-1.293-0.496-2.203-0.52-1.039 0.024-1.797 0.039-2.277 0.039z" inkscape:connector-curvature="0"/>
      <path id="path156" style="fill-rule:evenodd;fill:#523f2a" d="m51.52 16.68c-0.079 0.105-0.239 0.465-0.481 1.082-0.266 0.769-0.414 1.184-0.437 1.238l-0.122 0.199c0.747-0.32 1.493-0.492 2.243-0.519 0.851 0 2.05-0.078 3.597-0.238-0.906-0.188-1.508-0.403-1.8-0.641-0.481-0.402-0.493-0.973-0.04-1.723-0.347-0.078-0.867-0.066-1.558 0.043-0.75 0.133-1.215 0.321-1.402 0.559z" inkscape:connector-curvature="0"/>
      <path id="path158" style="fill-rule:evenodd;fill:#54412b" d="m65.398 12c0.082 0.481 0.11 0.813 0.082 1 0.243 0.028 1.016 0.028 2.321 0 0.851-0.027 1.574 0.078 2.16 0.321 0.105 0.375 0.012 0.746-0.281 1.121-0.403 0.398-0.692 0.703-0.879 0.918l2.519-0.961c1.731-0.719 1.614-1.907-0.359-3.559-2.484-1.68-3.856-2.652-4.121-2.918-0.828-0.91-1.895-1.601-3.199-2.082-0.907 0.586-1.719 1.254-2.442 2l-3.597 4.922c0.425 0.051 1.023 0 1.796-0.16 0.989-0.215 1.59-0.336 1.801-0.363 2.082-0.239 3.481-0.321 4.199-0.239z" inkscape:connector-curvature="0"/>
      <path id="path160" style="fill-rule:evenodd;fill:#7a5f3e" d="m20.52 15.039c0.878 0.586 1.878 0.973 3 1.16 0.64 0.106 1.695 0.243 3.16 0.403 0.718 0.105 1.707 0.465 2.961 1.078 1.359 0.668 2.359 1.082 3 1.238 0.8 0.188 1.879 0.254 3.238 0.203 1.734-0.027 2.828-0.027 3.281 0 2.051 0.16 3.613 0.211 4.68 0.16 0.988-0.054 2.226-0.296 3.719-0.722 2.136-0.613 3.347-0.945 3.64-1 0.426-0.106 1.121-0.227 2.082-0.36 0.215-0.078 0.508-0.253 0.879-0.519 0.348-0.266 0.641-0.441 0.879-0.52 0.508-0.16 1.254-0.242 2.242-0.242 1.199-0.023 1.961-0.066 2.281-0.117 0.852-0.105 1.946-0.426 3.278-0.961 1.496-0.559 2.551-0.906 3.16-1.039l0.922-0.16c0.851-0.563 1.441-0.922 1.758-1.082 0.453-0.586 1.242-1.133 2.359-1.641-0.559-0.476-1.398-1.09-2.516-1.84-1.015-0.664-1.574-1.05-1.683-1.156-1.414-1.469-3.371-2.375-5.879-2.723-0.188-0.023-2.441-0.117-6.762-0.277-1.547 0-2.719 0.012-3.519 0.039-1.438 0-2.598-0.094-3.481-0.281-2.023-0.531-3.558-0.895-4.597-1.078-1.762-0.348-3.336-0.414-4.723-0.203-0.746 0.109-2.399 0.414-4.957 0.922-2.082 0.425-3.762 0.691-5.043 0.8-1.813 0.157-5.758 0.719-11.84 1.68-1.227 0.184-2.066 0.359-2.519 0.52-0.747 0.238-1.454 0.664-2.118 1.281l-0.722 0.637c0.64 0.32 1.043 0.535 1.199 0.64 0.933 0.133 1.762 0.442 2.48 0.922 0.375 0.238 0.774 0.574 1.203 1 0.344 0.051 0.653 0.184 0.918 0.398 0.188 0.161 0.426 0.442 0.719 0.84 0.27 0.375 0.535 0.657 0.801 0.84 0.266 0.188 0.68 0.375 1.242 0.563 0.586 0.211 1.012 0.41 1.278 0.597z" inkscape:connector-curvature="0"/>
      <path id="path162" style="fill-rule:evenodd;fill:#705739" d="m11.879 9.879c0.933 0.133 1.762 0.442 2.48 0.922 0.375 0.238 0.774 0.574 1.2 1 0.347 0.051 0.652 0.184 0.921 0.398 0.188 0.161 0.426 0.442 0.719 0.84 0.231 0.321 0.457 0.575 0.68 0.762 0.133-0.32 0.043-0.707-0.277-1.16 0.824 0.133 1.183-0.133 1.078-0.801 0.347-0.027 1.015 0 2 0.078 0.851 0 1.441-0.133 1.761-0.398-0.082-0.188-0.242-0.399-0.48-0.641-0.266-0.293-0.441-0.504-0.52-0.64 0.504 0 0.692-0.25 0.559-0.758 0.266-0.055 0.668-0.028 1.199 0.082l0.121-0.403c0.239 0.082 0.895 0.332 1.961 0.762 0.907 0.238 1.278-0.043 1.117-0.844 0.348 0.028 0.774-0.089 1.282-0.359 0.558-0.293 0.84-0.586 0.84-0.879 0.828 0 1.32-0.012 1.48-0.039 0.188-0.027 0.441-0.133 0.762-0.32 0.343-0.188 0.543-0.282 0.597-0.282 0.161-0.027 0.469 0.028 0.922 0.161 0.399 0.105 0.692 0.121 0.879 0.039 0.133-0.051 0.254-0.145 0.36-0.278 0.082-0.136 0.148-0.215 0.199-0.242 0.187-0.238 0.32-0.375 0.402-0.398 0.184-0.11 0.641-0.11 1.359 0 0.188 0.023 0.426 0.078 0.719 0.16 0.215 0.078 0.281 0.293 0.199 0.637 0.774-0.184 1.387-0.079 1.84 0.32 0.481 0.426 0.414 1.027-0.199 1.801 0.266-0.239 0.84-0.532 1.723-0.879 0.718-0.375 1.011-0.867 0.879-1.481 0.48-0.027 1.265-0.027 2.359 0 1.012 0.028 1.785-0.054 2.32-0.242 0.051 0.32 0.2 0.574 0.442 0.762 0.238 0.187 0.492 0.199 0.758 0.039 0.027 0.293 0.015 0.508-0.04 0.641 0.215 0.05 0.508 0 0.879-0.161 0.403-0.16 0.696-0.238 0.879-0.238-0.078 0.504 0.067 0.774 0.442 0.797 0.293 0 0.652-0.117 1.082-0.359 0.027 0.32 0.011 0.574-0.039 0.761 3.172-0.8 5.437-1.242 6.797-1.32 0.027 0.641-0.239 1.359-0.797 2.16-0.535 0.774-1.11 1.332-1.723 1.68 0.508-0.028 1.496-0.348 2.961-0.961 1.227-0.508 2.199-0.641 2.918-0.399l0.359-0.32v1.199c0.188 0.028 0.469-0.011 0.84-0.121 0.32-0.105 0.59-0.133 0.801-0.078-0.024 0.32-0.277 0.695-0.758 1.121-0.559 0.426-0.933 0.735-1.121 0.918 0.562-0.027 1.199-0.172 1.922-0.437 0.133-0.055 0.746-0.321 1.84-0.801-0.293 0.586-1.055 1.187-2.282 1.801-1.414 0.586-2.375 1-2.878 1.238 0.453 0 1.265-0.227 2.437-0.68 1.039-0.398 1.856-0.558 2.441-0.48-0.027 0-0.121 0.133-0.281 0.398l0.52-0.117c-0.321 0.32-0.52 0.504-0.598 0.559 0.801-0.399 1.399-0.586 1.801-0.559 0.238 0 0.41 0.039 0.516 0.117l0.562-0.156 0.918-0.16c0.855-0.563 1.441-0.922 1.762-1.082 0.453-0.586 1.238-1.133 2.359-1.641-0.562-0.48-1.402-1.094-2.519-1.84-1.016-0.664-1.575-1.05-1.68-1.16-1.414-1.465-3.375-2.371-5.883-2.719-0.184-0.027-2.437-0.121-6.758-0.281-1.547 0-2.722 0.016-3.519 0.043-1.442 0-2.602-0.094-3.481-0.281-2.027-0.535-3.562-0.895-4.601-1.082-1.758-0.348-3.332-0.414-4.719-0.199-0.746 0.105-2.402 0.414-4.961 0.922-2.078 0.425-3.758 0.691-5.039 0.796-1.813 0.161-5.762 0.723-11.84 1.684-1.227 0.184-2.066 0.359-2.519 0.52-0.747 0.238-1.454 0.664-2.122 1.277l-0.718 0.641c0.64 0.32 1.039 0.535 1.199 0.64z" inkscape:connector-curvature="0"/>
      <path id="path164" style="fill-rule:evenodd;fill:#695135" d="m11.879 9.879c0.933 0.133 1.762 0.442 2.48 0.922 0.375 0.238 0.668 0.48 0.879 0.719l0.364 0.121c-0.43-0.32-0.602-0.789-0.524-1.402 0.16 0.054 0.43 0.015 0.801-0.118l-0.16-0.402c0.695-0.133 1.586 0.215 2.679 1.043 0.11 0.078 0.227 0.238 0.364 0.48 0.133 0.211 0.277 0.36 0.437 0.438 0.028 0 0.496 0.082 1.403 0.238 0.664 0 1.117-0.039 1.359-0.117-0.082-0.133-0.336-0.426-0.762-0.883-0.347-0.371-0.558-0.652-0.64-0.84-0.079-0.156-0.145-0.41-0.2-0.757-0.054-0.375-0.121-0.641-0.199-0.801-0.055-0.133-0.199-0.36-0.441-0.68-0.211-0.266-0.344-0.492-0.399-0.68 0.348-0.187 0.707-0.175 1.078 0.039 0.454 0.293 0.79 0.442 1 0.442 0-0.106 0.028-0.348 0.082-0.719 0.399-0.082 0.786 0.039 1.161 0.359 0.347 0.321 0.586 0.68 0.718 1.079 0.243-0.641 0.629-0.664 1.161-0.079 0.773 0.879 1.253 1.348 1.441 1.399 0.051-0.426-0.055-0.984-0.32-1.68-0.293-0.719-0.442-1.226-0.442-1.519 0.028-0.614 0.321-0.867 0.879-0.762 0.215 0.055 0.707 0.254 1.481 0.602 0.109-0.481 0.336-0.774 0.679-0.879 0.321-0.082 0.684 0 1.082 0.238 0.078-0.426 0.266-0.668 0.559-0.719 0.215-0.027 0.562 0 1.043 0.078 0.078 0 0.25-0.023 0.519-0.078 0.211-0.055 0.387-0.066 0.52-0.039 0.078 0 0.227 0.078 0.437 0.238 0.188 0.161 0.348 0.243 0.481 0.243 0.055-0.215 0.309-0.364 0.762-0.442 0.64-0.109 0.972-0.16 1-0.16-0.055 0.426 0.16 0.574 0.64 0.441 0.266-0.082 0.68-0.203 1.239-0.363h1.441c0.16 0.055 0.344 0.281 0.559 0.684 0.105 0.211 0.242 0.504 0.402 0.879 0.023-0.028 0.199-0.536 0.519-1.52 0.161-0.398 0.598-0.453 1.321-0.16 0.238 0.082 0.504 0.227 0.797 0.441 0.269 0.106 0.586 0.067 0.961-0.121-0.028 0.535 0.199 0.641 0.679 0.321 0.613-0.375 1-0.375 1.16 0 0.508-0.082 1.039-0.082 1.602 0 0.344 0.027 0.879 0.093 1.598 0.199 0.082 0.426 0.093 0.734 0.043 0.922 0.718 0.105 1.718-0.121 3-0.684 0.132 0.801 0.093 1.43-0.122 1.883 0.825-0.746 1.946-1.359 3.36-1.84 1.519-0.508 2.508-0.48 2.961 0.078 0.453 0.586 0.347 1.348-0.321 2.281-0.132 0.614-0.453 1.254-0.96 1.922-0.508 0.637-1.012 1.106-1.52 1.399 0.535-0.028 1.266-0.242 2.199-0.641 1.043-0.453 1.762-0.719 2.16-0.801l0.282-0.441c0.347-0.399 0.894-0.918 1.64-1.559 0.184-0.187 0.387-0.441 0.598-0.761 0.187-0.239 0.469-0.387 0.844-0.438 0.05 0.293 0.023 0.613-0.082 0.957-0.133 0.426-0.243 0.762-0.321 1 0.348-0.265 0.828-0.504 1.442-0.719 0.586-0.187 1.117-0.293 1.597-0.32 0 0.215 0.028 0.586 0.082 1.121 0.055 0.453 0.055 0.84 0 1.16 0.293 0.106 0.664 0.133 1.121 0.078 0.614-0.05 0.985-0.078 1.118-0.078-0.133 0.453-0.442 0.825-0.918 1.118-0.215 0.109-0.684 0.308-1.403 0.601 0.27 0.16 0.696 0.16 1.282 0 0.347-0.105 0.812-0.266 1.398-0.48l-0.879 0.839c0.133 0 0.375-0.011 0.719-0.039 0.293-0.054 0.535-0.066 0.723-0.039-0.082 0.184-0.321 0.399-0.723 0.641-0.344 0.238-0.547 0.465-0.598 0.68l1-0.043c0.321-0.184 0.785-0.465 1.399-0.84 0.453-0.586 1.242-1.133 2.359-1.641-0.559-0.476-1.398-1.09-2.519-1.84-1.012-0.664-1.575-1.05-1.68-1.156-1.414-1.469-3.375-2.375-5.879-2.723-0.188-0.023-2.441-0.117-6.762-0.277-1.547 0-2.719 0.012-3.519 0.039-1.442 0-2.602-0.094-3.481-0.281-2.027-0.531-3.558-0.895-4.597-1.078-1.762-0.348-3.336-0.414-4.723-0.203-0.746 0.109-2.399 0.414-4.957 0.922-2.082 0.425-3.762 0.691-5.043 0.8-1.813 0.157-5.758 0.719-11.84 1.68-1.227 0.184-2.066 0.359-2.519 0.52-0.747 0.238-1.454 0.664-2.122 1.281l-0.718 0.637c0.64 0.32 1.039 0.535 1.199 0.64z" inkscape:connector-curvature="0"/>
      <path id="path166" style="fill-rule:evenodd;fill:#5c472e" d="m11.879 9.879 0.043 0.039-0.203-0.476c0.109 0.023 0.281 0.011 0.519-0.043-0.023-0.078-0.011-0.239 0.043-0.481l1.16-0.039c0.079-0.453 0.547-0.64 1.399-0.558 0.027 0 0.629 0.093 1.801 0.281 0.48 0.078 1.066 0.265 1.757 0.558 0.161 0.055 0.442 0.094 0.84 0.121 0.403 0 0.684 0.04 0.84 0.118 0.11-0.348-0.066-0.852-0.519-1.52-0.293-0.48-0.145-0.851 0.441-1.117 0.508-0.215 1.105-0.336 1.801-0.359 0.719 0 1.304 0.117 1.758 0.359 0.293-0.695 0.734-0.547 1.32 0.437 0.055 0.11 0.094 0.27 0.121 0.481 0 0.187 0.055 0.336 0.16 0.441 0.028 0.028 0.332 0.188 0.918 0.481 0.055-0.426 0.055-1.028 0-1.801 0.082-0.559 0.43-0.918 1.043-1.078 0.32-0.082 0.598-0.07 0.84 0.039 0.371 0.133 0.613 0.199 0.719 0.199 0.453 0.028 0.828-0.094 1.121-0.359 0.453-0.399 0.734-0.625 0.84-0.68 0.214-0.109 0.507-0.16 0.879-0.16h0.878c0.27-0.027 0.629-0.109 1.082-0.242 0.508-0.156 0.852-0.25 1.04-0.278 0.425-0.082 1.16-0.242 2.199-0.48 0.933-0.16 1.668-0.133 2.203 0.078 0 0.188 0.039 0.426 0.117 0.723 0.109 0.371 0.176 0.613 0.199 0.718 0.188-0.054 0.524-0.32 1-0.8 0.375-0.375 0.735-0.547 1.082-0.52 0.215 0.028 0.52 0.16 0.918 0.399 0.375 0.214 0.735 0.308 1.082 0.281 0.16 0.375 0.575 0.519 1.242 0.441 0.372-0.027 0.891-0.093 1.559-0.203 0.266 0.027 0.734 0.121 1.399 0.281 0.558 0.133 1.015 0.188 1.359 0.161l0.082 0.242c0.293 0.023 0.668 0.011 1.117-0.043 0.242-0.024 0.602-0.078 1.082-0.156 0.055 0.21 0.067 0.359 0.039 0.437 0.348 0.027 0.75 0 1.203-0.078l1.2-0.16c0.21-0.028 0.746-0.016 1.597 0.039 0.668 0.027 1.188-0.016 1.563-0.121 0.238 0.64 0.359 1.054 0.359 1.242 0.027 0.398-0.133 0.812-0.48 1.238l-0.161 0.16c-0.105 0.614-0.414 1.266-0.918 1.961-0.484 0.668-0.988 1.16-1.523 1.481l0.684-0.082c0.613-0.399 1.199-0.946 1.757-1.637 0.055-0.055 0.11-0.188 0.161-0.402 0.027-0.211 0.082-0.348 0.16-0.399 0.105-0.082 0.304-0.105 0.601-0.082 0.293 0 0.504-0.066 0.637-0.199 0.055-0.055 0.121-0.227 0.203-0.52 0.078-0.265 0.16-0.441 0.238-0.519 0.188-0.242 0.442-0.426 0.762-0.559 0.211-0.054 0.504-0.148 0.879-0.281 0.746-0.266 1.492-0.387 2.242-0.359 0.051 0.238 0.067 0.398 0.039 0.48 0.133 0 0.532-0.133 1.2-0.402 0.535-0.184 0.96-0.184 1.281 0 0.265 0.16 0.398 0.441 0.398 0.84 0 0.453 0.067 0.75 0.199 0.882 0.161 0.184 0.469 0.239 0.922 0.161 0.586-0.082 0.946-0.11 1.078-0.082l-0.64-0.481c-1.41-1.465-3.371-2.371-5.879-2.719-0.188-0.027-2.438-0.121-6.758-0.281-1.547 0-2.723 0.016-3.523 0.043-1.438 0-2.598-0.094-3.477-0.281-2.027-0.535-3.562-0.895-4.601-1.082-1.762-0.348-3.332-0.414-4.719-0.199-0.75 0.105-2.403 0.414-4.961 0.918-2.082 0.429-3.762 0.695-5.039 0.8-1.817 0.16-5.762 0.719-11.84 1.68-1.227 0.188-2.066 0.363-2.52 0.52-0.75 0.242-1.453 0.668-2.121 1.281l-0.722 0.64c0.64 0.317 1.039 0.532 1.199 0.637z" inkscape:connector-curvature="0"/>
      <path id="path168" style="fill-rule:evenodd;fill:#5c472e" d="m71.039 10.918c-0.531-0.476-1.465-1.144-2.801-2 0.242 0.348 0.11 0.774-0.398 1.281l0.398 0.04c-0.05 0.375-0.16 0.707-0.316 1 0.316 0.082 0.758 0.093 1.316 0.042 0.703-0.074 1.129-0.113 1.282-0.121l0.519-0.242z" inkscape:connector-curvature="0"/>
      <path id="path170" style="fill-rule:evenodd;fill:#5c472e" d="m58.762 10.078c0.426 0 0.73-0.039 0.918-0.117 0.265-0.082 0.48-0.265 0.64-0.558 0.184-0.348 0.2-0.481 0.039-0.403-0.32 0.188-0.519 0.266-0.597 0.242-0.028-0.109-0.028-0.281 0-0.519-0.321 0.371-0.59 0.664-0.801 0.879-0.32 0.297-0.602 0.457-0.84 0.48h0.641v-0.004z" inkscape:connector-curvature="0"/>
      <path id="path172" style="fill-rule:evenodd;fill:#5c472e" d="m63.359 12.16h0.52c-0.16 0.161-0.199 0.305-0.117 0.442 0.105 0.133 0.265 0.183 0.476 0.16 0.082-0.188 0.485-0.254 1.203-0.203 0.637 0.027 0.973-0.117 1-0.438-0.242 0.024-0.429 0.039-0.562 0.039-0.238 0.028-0.426 0.012-0.559-0.039 0.028-0.027 0.242-0.187 0.641-0.48 0.266-0.242 0.387-0.442 0.359-0.602-0.933 0.321-1.558 0.469-1.879 0.442 0.024-0.055 0.161-0.227 0.399-0.52 0.16-0.187 0.215-0.387 0.16-0.601-0.266-0.028-0.465 0.027-0.602 0.16-0.132 0.215-0.277 0.386-0.437 0.519-0.293 0.078-0.52 0.16-0.684 0.239-0.343 0.109-0.425 0.253-0.238 0.441v-0.117c0.027 0.078 0.16 0.078 0.399 0-0.106 0.133-0.133 0.316-0.079 0.558z" inkscape:connector-curvature="0"/>
      <path id="path174" style="fill-rule:evenodd;fill:#5c472e" d="m66.32 13.16c0.832-0.004 1.313-0.086 1.442-0.242 0.023-0.051 0.05-0.156 0.078-0.316 0-0.16-0.028-0.254-0.078-0.281-0.16-0.106-0.442-0.028-0.84 0.238-0.43 0.242-0.629 0.441-0.602 0.601z" inkscape:connector-curvature="0"/>
      <path id="path176" style="fill-rule:evenodd;fill:#8c6f4c" d="m22.641 15.879-0.243-0.078h1.442c0.082-0.32-0.145-0.586-0.68-0.801-0.453-0.187-0.855-0.254-1.199-0.199-0.293 0.027-0.52 0.051-0.68 0.078-0.269 0.055-0.414 0.149-0.441 0.281-0.028 0.188 0.238 0.348 0.801 0.481 0.265 0.078 0.597 0.16 1 0.238z" inkscape:connector-curvature="0"/>
      <path id="path178" style="fill-rule:evenodd;fill:#8c6f4c" d="m21.039 14.68-0.199-0.32c0.215 0.027 0.359-0.012 0.441-0.121 0.078-0.106 0.012-0.211-0.203-0.321-0.078-0.051-0.226-0.066-0.437-0.039-0.243 0.027-0.375 0.082-0.403 0.16-0.05 0.16 0.043 0.309 0.282 0.442 0.132 0.054 0.308 0.121 0.519 0.199z" inkscape:connector-curvature="0"/>
      <path id="path180" style="fill-rule:evenodd;fill:#8c6f4c" d="m25.121 16.16c-0.113 0.008-0.207 0.008-0.281 0-0.031-0.011-0.059-0.027-0.078-0.039l0.359 0.039zm0.32 0.039c0.051-0.16 0.028-0.253-0.082-0.281-0.027-0.023-0.148-0.039-0.359-0.039-0.32-0.027-0.453 0.016-0.398 0.121 0.015 0.086 0.097 0.141 0.238 0.16 0.07 0.028 0.164 0.039 0.281 0.039h0.32z" inkscape:connector-curvature="0"/>
      <path id="path182" style="fill-rule:evenodd;fill:#8c6f4c" d="m25.84 15.879 0.14 0.082c0.278-0.004 0.379-0.07 0.301-0.199-0.109-0.16-0.293-0.188-0.562-0.082-0.024 0.105 0.015 0.172 0.121 0.199z" inkscape:connector-curvature="0"/>
      <path id="path184" style="fill-rule:evenodd;fill:#8c6f4c" d="m33.16 18.121c0.668-0.136 0.84-0.347 0.52-0.64-0.055-0.055-0.227-0.094-0.52-0.121h-0.558l-0.602-0.239c-0.398-0.109-0.801-0.16-1.199-0.16 0.027 0.238 0.199 0.438 0.519 0.598-0.425-0.051-0.746-0.067-0.961-0.039 0.161 0.187 0.426 0.375 0.801 0.558 0.215 0.11 0.508 0.27 0.879 0.481l0.082-0.078c0.746 0 1.094-0.121 1.039-0.36z" inkscape:connector-curvature="0"/>
      <path id="path186" style="fill-rule:evenodd;fill:#8c6f4c" d="m34.359 17.719h0.2c0.293 0.055 0.429-0.051 0.402-0.32-0.906 0-1.109 0.109-0.602 0.32z" inkscape:connector-curvature="0"/>
      <path id="path188" style="fill-rule:evenodd;fill:#8c6f4c" d="m39.359 18.602-0.199-0.043c1.012 0 1.305-0.094 0.879-0.278-0.133-0.054-0.387-0.093-0.758-0.121-0.402-0.027-0.613 0-0.64 0.079-0.055 0.136 0.027 0.242 0.238 0.32 0.16 0.055 0.32 0.066 0.48 0.043z" inkscape:connector-curvature="0"/>
      <path id="path190" style="fill-rule:evenodd;fill:#8c6f4c" d="m39.398 17.481c-0.078-0.133-0.277-0.176-0.597-0.121-0.266 0.027-0.481 0.082-0.641 0.16 0.028 0.133 0.121 0.226 0.281 0.281 0.106 0.047 0.192 0.086 0.258 0.117 0.188-0.004 0.356-0.031 0.5-0.078 0.266-0.078 0.336-0.199 0.199-0.359z" inkscape:connector-curvature="0"/>
      <path id="path192" style="fill-rule:evenodd;fill:#8c6f4c" d="m36.602 17.719-0.082 0.043h0.32c0.027-0.188-0.106-0.254-0.399-0.203-0.054 0.109 0 0.16 0.161 0.16z" inkscape:connector-curvature="0"/>
      <path id="path194" style="fill-rule:evenodd;fill:#8c6f4c" d="m39.68 16.16c0.113 0.028 0.234 0.055 0.359 0.079 0.109 0.082 0.418 0.121 0.922 0.121l0.719 0.16c0.824 0.105 1.359 0.054 1.597-0.16 0.563-0.426 0.121-0.641-1.316-0.641-0.426-0.078-0.773-0.117-1.039-0.117-0.484-0.055-0.695 0.066-0.641 0.359-0.375 0-0.574 0.067-0.601 0.199z" inkscape:connector-curvature="0"/>
      <path id="path196" style="fill-rule:evenodd;fill:#8c6f4c" d="m44 16.801-0.039-0.039c0.906 0 1.144-0.109 0.719-0.32-0.453-0.215-0.801-0.203-1.039 0.039 0.054 0.133 0.171 0.238 0.359 0.32z" inkscape:connector-curvature="0"/>
      <path id="path198" style="fill-rule:evenodd;fill:#8c6f4c" d="m48 17.719-0.68-0.199c0.133-0.028 0.575 0.039 1.321 0.199 0.691 0.082 1.023-0.066 1-0.438-0.028-0.296-0.481-0.48-1.364-0.562-0.879-0.051-1.211 0.094-1 0.441-0.558 0-0.89 0.012-1 0.039 0.11 0.215 0.375 0.36 0.801 0.442 0.215 0.027 0.524 0.055 0.922 0.078z" inkscape:connector-curvature="0"/>
      <path id="path200" style="fill-rule:evenodd;fill:#8c6f4c" d="m46 16.36-0.199 0.039c1.304-0.106 1.679-0.321 1.121-0.637-0.11-0.055-0.348-0.055-0.723 0-0.371 0.078-0.586 0.156-0.64 0.238-0.133 0.293 0.015 0.414 0.441 0.36z" inkscape:connector-curvature="0"/>
      <path id="path202" style="fill-rule:evenodd;fill:#8c6f4c" d="m40.441 14.481h0.118c0.136 0 0.668 0.011 1.601 0.039 0.852-0.078 1.227-0.305 1.117-0.68-0.078-0.348-0.863-0.601-2.355-0.762-1.336-0.293-2.188-0.371-2.563-0.238-0.054 0.16 0 0.32 0.161 0.481 0.132 0.132 0.292 0.214 0.48 0.238h-1.078c-0.082 0.426 0.238 0.707 0.957 0.84 0.402 0.054 0.922 0.082 1.562 0.082z" inkscape:connector-curvature="0"/>
      <path id="path204" style="fill-rule:evenodd;fill:#8c6f4c" d="m36.781 12.559c0.012 0.015 0.024 0.027 0.039 0.043 0.035 0.015 0.075 0.027 0.121 0.039 0.153 0.019 0.371 0.008 0.661-0.039 0.078-0.321-0.215-0.43-0.883-0.321-0.051 0.09-0.051 0.168 0 0.239l0.019 0.019 0.043 0.02z" inkscape:connector-curvature="0"/>
      <path id="path206" style="fill-rule:evenodd;fill:#8c6f4c" d="m39.32 12.199-0.519-0.078c0.265 0 0.664 0.039 1.199 0.118 0.48 0.027 0.879 0 1.199-0.079 0.055-0.214-0.078-0.347-0.398-0.398-0.856-0.16-1.641-0.148-2.36 0.039 0.079 0.32 0.371 0.453 0.879 0.398z" inkscape:connector-curvature="0"/>
      <path id="path208" style="fill-rule:evenodd;fill:#8c6f4c" d="m29.039 11.719c0.293 0.109 0.68 0.227 1.16 0.359 0.16 0.055 0.481 0.149 0.961 0.282 0.383 0.113 0.649 0.234 0.801 0.359l-0.121-0.117c0.933 0 1.492-0.176 1.68-0.524 0.054-0.105 0.039-0.25-0.04-0.437-0.105-0.188-0.148-0.309-0.121-0.36 0-0.082 0.121-0.187 0.36-0.32 0.187-0.109 0.242-0.242 0.16-0.402-0.133-0.238-0.68-0.36-1.641-0.36-0.718 0.161-1.211 0.188-1.476 0.082-0.11-0.132-0.231-0.253-0.364-0.359-0.293-0.187-0.597-0.215-0.918-0.082-0.32 0.16-0.519 0.399-0.601 0.719l-0.32 0.043c0.136 0.211 0.441 0.426 0.921 0.637-0.64-0.106-1.132-0.145-1.48-0.118 0.16 0.211 0.508 0.414 1.039 0.598z" inkscape:connector-curvature="0"/>
      <path id="path210" style="fill-rule:evenodd;fill:#8c6f4c" d="m29.52 12.559c-0.508-0.133-0.895-0.227-1.161-0.278-0.453-0.082-0.839-0.093-1.16-0.042-0.027 0.242 0.227 0.375 0.762 0.402 0.266 0 0.598-0.016 1-0.039 0.641 0.105 0.906 0.066 0.801-0.121-0.082-0.16-0.203-0.215-0.364-0.16l0.122 0.238z" inkscape:connector-curvature="0"/>
      <path id="path212" style="fill-rule:evenodd;fill:#8c6f4c" d="m25.641 12.481 0.16-0.082 0.597-0.039c0.055-0.106 0.055-0.188 0-0.239-0.132-0.109-0.343-0.16-0.636-0.16-0.321 0.024-0.551 0.09-0.684 0.199 0.027 0.028 0.215 0.133 0.563 0.321z" inkscape:connector-curvature="0"/>
      <path id="path214" style="fill-rule:evenodd;fill:#8c6f4c" d="m35.922 9.399c0.234 0.019 0.539 0.047 0.918 0.082 0.508 0 0.894-0.055 1.16-0.16 0.027-0.188-0.238-0.375-0.801-0.559-0.531-0.215-1.531-0.32-3-0.32h-0.64c-0.293 0.027-0.493 0.121-0.598 0.281 0.16 0.156 0.414 0.238 0.758 0.238 0.168 0 0.41-0.012 0.722-0.039-0.187 0.035-0.199 0.152-0.043 0.359 0.133 0.184 0.618 0.223 1.461 0.122 0.02 0 0.039 0 0.063-0.004z" inkscape:connector-curvature="0"/>
      <path id="path216" style="fill-rule:evenodd;fill:#8c6f4c" d="m35.441 11.121-0.601 0.16c0.746 0 1.215-0.042 1.398-0.121 0.082-0.265-0.105-0.441-0.558-0.519-0.399-0.055-0.707-0.027-0.918 0.078-0.457 0.266-0.227 0.402 0.679 0.402z" inkscape:connector-curvature="0"/>
      <path id="path218" style="fill-rule:evenodd;fill:#8c6f4c" d="m52.961 16.762-0.441-0.082c0.187 0.027 0.281-0.055 0.281-0.238 0-0.161-0.055-0.309-0.16-0.442-0.215-0.215-0.629-0.32-1.243-0.32-0.613 0.027-0.757 0.199-0.437 0.519-0.508 0-0.762 0.082-0.762 0.243 0.242 0.183 0.696 0.293 1.36 0.32h1.402z" inkscape:connector-curvature="0"/>
      <path id="path220" style="fill-rule:evenodd;fill:#8c6f4c" d="m54.961 15.801 0.078-0.199c0.375 0.051 0.547-0.067 0.52-0.363-0.028-0.293-0.184-0.477-0.481-0.559l-0.879-0.281c-0.265-0.106-0.492-0.184-0.679-0.239-0.321-0.109-0.547-0.121-0.68-0.039-0.242 0.133-0.203 0.293 0.117 0.481 0.402 0.265 0.613 0.426 0.641 0.476-0.106 0.161 0.054 0.321 0.48 0.481 0.215 0.082 0.508 0.16 0.883 0.242z" inkscape:connector-curvature="0"/>
      <path id="path222" style="fill-rule:evenodd;fill:#8c6f4c" d="m54.762 14.199-0.364-0.121c0.137-0.078 0.149-0.211 0.043-0.398-0.054-0.106-0.187-0.188-0.402-0.238-0.211-0.028-0.387-0.016-0.519 0.039-0.348 0.133-0.282 0.265 0.203 0.398 0.265 0.082 0.609 0.188 1.039 0.32z" inkscape:connector-curvature="0"/>
      <path id="path224" style="fill-rule:evenodd;fill:#8c6f4c" d="m52.359 13.16 0.082-0.039c0.348 0.024 0.52-0.027 0.52-0.16 0-0.16-0.176-0.226-0.52-0.199-0.269 0.023-0.414 0.105-0.441 0.238s0.094 0.188 0.359 0.16z" inkscape:connector-curvature="0"/>
      <path id="path226" style="fill-rule:evenodd;fill:#8c6f4c" d="m54.238 12.918-0.199 0.16c0.535 0.055 0.684-0.066 0.441-0.359-0.265-0.32-0.535-0.32-0.8 0 0.132 0.133 0.32 0.199 0.558 0.199z" inkscape:connector-curvature="0"/>
      <path id="path228" style="fill-rule:evenodd;fill:#8c6f4c" d="m55.238 14.059 0.16-0.02c0.055-0.105 0.043-0.199-0.039-0.277-0.054-0.055-0.148-0.055-0.281 0 0 0.086 0.055 0.187 0.16 0.297z" inkscape:connector-curvature="0"/>
      <path id="path230" style="fill-rule:evenodd;fill:#8c6f4c" d="m56.32 13.68c0.469-0.008 0.75-0.035 0.84-0.078-0.027-0.43-0.426-0.735-1.199-0.922-0.75-0.188-1.254-0.149-1.52 0.121 0.106 0.027 0.282 0.172 0.52 0.438 0.027 0.027 0.051 0.109 0.078 0.242 0.109 0.078 0.535 0.144 1.281 0.199z" inkscape:connector-curvature="0"/>
      <path id="path232" style="fill-rule:evenodd;fill:#8c6f4c" d="m53.602 12.481 0.16-0.2c0.05-0.296-0.137-0.386-0.563-0.281-0.398 0.106-0.265 0.266 0.403 0.481z" inkscape:connector-curvature="0"/>
      <path id="path234" style="fill-rule:evenodd;fill:#5c472e" d="m20.32 11.879 0.719 0.641c0.266 0.105 0.574 0.148 0.922 0.121 0.398-0.027 0.613-0.149 0.641-0.36 0.05-0.242-0.028-0.441-0.243-0.601-0.238-0.133-0.586-0.188-1.039-0.16-0.453 0.027-0.8 0.105-1.039 0.242-0.054 0.051-0.043 0.09 0.039 0.117z" inkscape:connector-curvature="0"/>
      <path id="path236" style="fill-rule:evenodd;fill:#5c472e" d="m25.039 14.602-0.238-0.442c0.32 0.239 0.758 0.371 1.32 0.399 0.613 0.027 0.879-0.199 0.801-0.68-0.027-0.078-0.094-0.172-0.203-0.277-0.024-0.082 0-0.203 0.082-0.363-0.028-0.161-0.055-0.25-0.082-0.278-0.024 0-0.117-0.015-0.278-0.043-0.64-0.105-1.203-0.066-1.679 0.121-0.137 0.055-0.203 0.106-0.203 0.16 0.027 0.082 0.027 0.176 0 0.282-0.133 0.718 0.027 1.093 0.48 1.121z" inkscape:connector-curvature="0"/>
      <path id="path238" style="fill-rule:evenodd;fill:#5c472e" d="m30.32 15c0.028 0.16 0.121 0.266 0.282 0.321 0.105 0.054 0.25 0.121 0.437 0.199 0.266 0.133 0.656 0.347 1.16 0.64 0.906 0.371 1.496 0.387 1.762 0.039 0.238-0.32 0.133-0.613-0.32-0.878-0.563-0.321-0.852-0.508-0.879-0.559-0.028-0.082-0.028-0.215 0-0.402 0.023-0.188 0-0.332-0.082-0.442-0.055-0.078-0.36-0.25-0.918-0.519-0.641-0.293-1.414-0.266-2.321 0.082-0.214 0.05-0.414 0.144-0.601 0.281-0.293 0.184-0.426 0.371-0.399 0.559l1.879 0.679z" inkscape:connector-curvature="0"/>
      <path id="path240" style="fill-rule:evenodd;fill:#5c472e" d="m26.961 16.281 1.277 0.118c0.375 0.054 0.762 0.027 1.16-0.078 0.563-0.106 0.75-0.336 0.563-0.68-0.133-0.215-0.668-0.227-1.602-0.039-0.961 0.183-1.425 0.41-1.398 0.679z" inkscape:connector-curvature="0"/>
      <path id="path242" style="fill-rule:evenodd;fill:#5c472e" d="m34.84 18.719 0.961 0.082c1.437 0.105 2.187-0.039 2.238-0.441 0.055-0.239-0.051-0.387-0.32-0.442h-0.68c-0.613-0.023-1.078-0.039-1.398-0.039-0.563 0-1 0.039-1.321 0.121-0.425 0.106-0.508 0.239-0.242 0.399 0.16 0.082 0.414 0.187 0.762 0.32z" inkscape:connector-curvature="0"/>
      <path id="path244" style="fill-rule:evenodd;fill:#5c472e" d="m44.559 18.281h2.679c1.309 0 1.774-0.109 1.403-0.32-0.055-0.027-0.266-0.043-0.641-0.043-0.586 0-1.094-0.066-1.52-0.199-0.265-0.078-0.734-0.133-1.402-0.16-0.637-0.028-1.105-0.106-1.398-0.238-0.532-0.266-1.067-0.454-1.602-0.559-0.289 0-0.516-0.016-0.68-0.043-0.773-0.184-1.746-0.586-2.918-1.199 0.665 0.586 1.133 0.933 1.399 1.039 0.402 0.137 0.641 0.281 0.723 0.441v0.199c0.023 0.082 0.093 0.149 0.199 0.2l0.558 0.402c0.055 0 0.149-0.055 0.282-0.16 0.105-0.082 0.199-0.121 0.281-0.121 0.078 0 0.223 0.105 0.437 0.32 0.453 0.293 1.188 0.441 2.2 0.441z" inkscape:connector-curvature="0"/>
      <path id="path246" style="fill-rule:evenodd;fill:#5c472e" d="m35.121 15c-0.109 0.559 0.399 0.895 1.52 1 0.879 0.078 1.625 0.051 2.238-0.082 0.773-0.156 1.055-0.398 0.84-0.719-0.106-0.187-0.438-0.32-1-0.398-0.614-0.082-0.985-0.16-1.117-0.242 0.238-0.348 0.25-0.719 0.039-1.117-0.215-0.375-0.536-0.614-0.961-0.723-0.399-0.078-0.985-0.039-1.758 0.121-0.883 0.16-1.309 0.441-1.281 0.84l1.48 1.32z" inkscape:connector-curvature="0"/>
      <path id="path248" style="fill-rule:evenodd;fill:#5c472e" d="m44.121 10.762c0.156 0.078 0.414 0.266 0.758 0.559 0.293 0.293 0.574 0.48 0.84 0.558 0.269 0.082 0.601 0.121 1 0.121h1c0.133 0.028 0.281 0.051 0.441 0.078-0.883 0.188-1.281 0.414-1.199 0.684 0.051 0.238 0.332 0.437 0.84 0.598 0.426 0.16 0.801 0.242 1.121 0.242 0.504 0.023 1.012-0.16 1.516-0.563 0.457-0.32 0.839-0.718 1.16-1.199 0.136-0.215 0.336-0.332 0.601-0.359 0.321-0.028 0.559-0.094 0.719-0.2 0.293-0.269 0.254-0.574-0.117-0.921-0.137-0.133-0.254-0.215-0.363-0.239-0.317 0-0.559-0.043-0.719-0.121-0.293-0.133-0.508-0.199-0.641-0.199-0.183 0.051-0.332 0.078-0.437 0.078-0.137 0-0.243-0.066-0.321-0.199l0.282-0.559-0.082-0.242c0-0.133 0.082-0.371 0.242-0.719 0.133-0.32 0.172-0.574 0.117-0.757-0.481 0.316-0.758 0.476-0.84 0.476l0.039-0.437c-0.398 0.132-0.746 0.211-1.039 0.238-0.559-0.027-0.961-0.012-1.199 0.043-0.133 0.023-0.36 0.133-0.68 0.316-0.855 0.297-1.336 0.442-1.441 0.442-0.614-0.133-1.082-0.172-1.399-0.117l-1 0.199c-0.64 0.238-0.976 0.371-1 0.398-0.132 0.133-0.215 0.32-0.242 0.559-0.027 0.242 0.016 0.429 0.121 0.562l1.922 0.68z" inkscape:connector-curvature="0"/>
      <path id="path250" style="fill-rule:evenodd;fill:#5c472e" d="m58.84 12.879c0.105 0 0.558-0.027 1.359-0.078 0.453 0 0.746-0.066 0.879-0.199l0.121-0.242c0.563-0.559 0.813-1.039 0.762-1.442-0.266 0.375-0.547 0.535-0.84 0.481l0.16-0.2c-0.562 0.243-0.933 0.375-1.121 0.403-0.64 0.023-1.148 0.066-1.519 0.117-0.668 0.055-1.094 0.215-1.282 0.48 0 0.055 0.028 0.082 0.082 0.082l0.161 0.2c0.21 0.238 0.625 0.371 1.238 0.398z" inkscape:connector-curvature="0"/>
      <path id="path252" style="fill-rule:evenodd;fill:#5c472e" d="m58.84 15.039c0.16-0.027 0.398-0.144 0.719-0.359 0.269-0.16 0.453-0.305 0.562-0.441-0.828 0.242-1.402 0.347-1.723 0.32-0.558-0.051-0.906-0.078-1.039-0.078-0.425 0.027-0.707 0.133-0.839 0.32l0.878 0.16c0.137 0 0.375 0.024 0.723 0.078 0.32 0.055 0.559 0.055 0.719 0z" inkscape:connector-curvature="0"/>
      <path id="path254" style="fill-rule:evenodd;fill:#5c472e" d="m59.52 15.52c1.031-0.043 1.496-0.281 1.402-0.719l-0.883 0.16c-0.184 0.051-0.305 0.117-0.359 0.199-0.055 0.055-0.106 0.172-0.16 0.36z" inkscape:connector-curvature="0"/>
      <path id="path256" style="fill-rule:evenodd;fill:#5c472e" d="m24.84 10.281-0.281 0.278c0.187 0.32 0.828 0.519 1.921 0.601 0.907 0.106 1.442 0.028 1.598-0.242l0.043-0.558-0.043-0.239c-0.078 0-0.156-0.015-0.238-0.043l-0.32-0.277-0.559-0.32c-0.16-0.16-0.266-0.254-0.32-0.282-0.106 0.028-0.188 0.028-0.243 0-0.105-0.054-0.183-0.16-0.238-0.32-0.082-0.215-0.121-0.332-0.121-0.359-0.184 0.027-0.305 0.133-0.359 0.32-0.055 0.238-0.106 0.414-0.16 0.52-0.079-0.188-0.188-0.254-0.321-0.2-0.187 0.133-0.332 0.227-0.437 0.278-0.723 0.082-1.203 0.203-1.442 0.363 0.106 0.051 0.375 0.09 0.801 0.117 0.32 0.055 0.559 0.176 0.719 0.363z" inkscape:connector-curvature="0"/>
      <path id="path258" style="fill-rule:evenodd;fill:#5c472e" d="m59.641 10.719 0.082-0.039c0.449 0.371 1.105 0.598 1.957 0.68 0.425 0.027 0.668 0.214 0.718 0.558 0 0.457 0.016 0.801 0.043 1.043 0.024 0.293 0.118 0.613 0.282 0.957 0.183 0.43 0.382 0.629 0.597 0.602 0.188-0.051 0.254-0.281 0.2-0.68-0.106-0.266-0.161-0.426-0.161-0.48 0-0.106 0.043-0.254 0.121-0.442-0.242 0-0.414-0.023-0.519-0.078l0.16-1.078c0-0.297-0.027-0.496-0.082-0.602l-0.437-0.519c-0.11-0.055-0.321-0.067-0.641-0.039-0.402 0.051-0.656 0.078-0.762 0.078-0.293-0.027-0.465-0.106-0.519-0.238-0.051-0.082-0.094-0.293-0.118-0.641-0.242 0.184-0.429 0.32-0.562 0.398-0.238 0.106-0.414 0.028-0.52-0.238 0 0.32 0.055 0.574 0.161 0.758z" inkscape:connector-curvature="0"/>
      <path id="path260" style="fill-rule:evenodd;fill:#5c472e" d="m29.801 10.762h0.32l0.438-0.082c0.16-0.535-0.039-0.707-0.598-0.52-0.586 0.215-0.641 0.414-0.16 0.602z" inkscape:connector-curvature="0"/>
      <path id="path262" style="fill-rule:evenodd;fill:#5c472e" d="m30.398 9.641 0.122 0.039c0.187 0.293 0.558 0.508 1.121 0.641 0.453 0.105 0.894 0.148 1.32 0.121-0.027-0.348-0.242-0.563-0.641-0.641-0.508-0.055-0.8-0.133-0.879-0.242-0.054-0.211-0.093-0.36-0.121-0.438-0.027-0.109-0.199-0.136-0.519-0.082-0.453 0.055-0.586 0.254-0.403 0.602z" inkscape:connector-curvature="0"/>
      <path id="path264" style="fill-rule:evenodd;fill:#5c472e" d="m34.602 8.16c0.05-0.054 0.117-0.132 0.199-0.242 0.027-0.051 0.121-0.105 0.277-0.156h0.801c0.668 0 1.043-0.016 1.121-0.043 0.398-0.078 0.641-0.305 0.719-0.68 0.082-0.48-0.094-0.679-0.52-0.601l-0.039-0.278c-0.187 0.024-0.414 0.118-0.68 0.278-0.32 0.187-0.546 0.308-0.679 0.363-0.586-0.027-1.016-0.016-1.281 0.039-0.774 0.133-1.133 0.438-1.079 0.918-0.214-0.023-0.402-0.039-0.562-0.039-0.266 0-0.438 0.039-0.52 0.121-0.105 0.133-0.105 0.305 0 0.52 0.106 0.211 0.227 0.343 0.36 0.398l-0.078-0.277h1.078c0.375 0 0.668-0.106 0.883-0.321z" inkscape:connector-curvature="0"/>
      <path id="path266" style="fill-rule:evenodd;fill:#5c472e" d="m37.039 9.961-0.199-0.082c0.105 0.188 0.039 0.414-0.199 0.68-0.188 0.242-0.161 0.402 0.078 0.48 0.293 0.106 0.601 0.055 0.922-0.16 0.32-0.187 0.464-0.426 0.437-0.719 0.774 0 1.215-0.093 1.32-0.281 0.11-0.16 0.122-0.305 0.043-0.441-0.109-0.106-0.253-0.16-0.441-0.16-0.055-0.133-0.012-0.332 0.121-0.598 0.106-0.242 0.145-0.426 0.117-0.559-0.343 0.532-0.84 0.852-1.476 0.957-0.481 0.082-0.789 0.161-0.922 0.243-0.215 0.16-0.145 0.371 0.199 0.64z" inkscape:connector-curvature="0"/>
      <path id="path268" style="fill-rule:evenodd;fill:#5c472e" d="m41.199 8.121h-0.039c-0.055 0.051-0.039 0.106 0.039 0.157v-0.157zm1.082-0.043c0.559-0.05 0.813-0.226 0.758-0.515-0.027-0.188-0.105-0.297-0.238-0.321-0.028-0.027-0.176-0.054-0.442-0.082-0.48-0.082-0.851-0.066-1.121 0.039-0.16 0.11-0.265 0.227-0.316 0.364-0.055 0.156 0.039 0.25 0.277 0.277v0.281c0.16-0.027 0.52-0.043 1.082-0.043z" inkscape:connector-curvature="0"/>
      <path id="path270" style="fill-rule:evenodd;fill:#5c472e" d="m45.238 14.481c0.375 0.027 0.723 0 1.043-0.082 0.399-0.133 0.586-0.348 0.559-0.637-0.028-0.242-0.188-0.387-0.481-0.441-0.078-0.028-0.332-0.04-0.757-0.04-0.321 0-0.59 0.012-0.801 0.04-0.426 0.027-0.668 0.105-0.723 0.238-0.078 0.137-0.039 0.269 0.121 0.402 0.106 0.106 0.242 0.172 0.403 0.199l0.636 0.321z" inkscape:connector-curvature="0"/>
      <path id="path272" style="fill-rule:evenodd;fill:#7d7368" d="m26.039 13.559c-0.344-0.32-0.734-0.481-1.16-0.481-0.504 0-0.758 0.203-0.758 0.602v0.039c0 0.187 0.117 0.387 0.359 0.602 0.239 0.187 0.52 0.304 0.84 0.359 0.293 0.082 0.586 0.066 0.879-0.039 0.133-0.027 0.242-0.106 0.321-0.242l0.039-0.16v-0.079l-0.039-0.16c-0.106-0.133-0.266-0.281-0.481-0.441z" inkscape:connector-curvature="0"/>
      <path id="path274" style="fill-rule:evenodd;fill:#7d7368" d="m32.238 14.961v-0.043c-0.05-0.238-0.304-0.492-0.758-0.758l-0.121-0.121-0.281-0.16c-0.531-0.183-0.984-0.293-1.359-0.32h-0.078c-0.348 0-0.68 0.137-1 0.402l-0.243 0.16-0.039 0.078c0.403 0.055 0.653 0.133 0.762 0.243 0.051 0.027 0.078 0.093 0.078 0.199l0.039 0.238 0.563-0.039c0.398-0.055 0.734-0.055 1 0 0.32 0.078 0.586 0.199 0.801 0.359l0.32 0.442 0.156-0.242c0.11-0.133 0.16-0.278 0.16-0.438z" inkscape:connector-curvature="0"/>
      <path id="path276" style="fill-rule:evenodd;fill:#7d7368" d="m34.281 13.559-0.121 0.082c-0.16 0.16-0.238 0.32-0.238 0.48 0 0.293 0.183 0.547 0.558 0.758 0.293 0.215 0.653 0.32 1.079 0.32l0.043 0.04c0.21 0.027 0.41 0.027 0.597 0l-0.039 0.042-0.398 0.2h-0.121l-0.243 0.199-0.199 0.121 0.082 0.238c0.614-0.05 1.039-0.027 1.278 0.082 0.402 0.16 0.519 0.465 0.363 0.918l0.078 0.121c0.188 0.348 0.48 0.387 0.879 0.121 0.082-0.054 0.121-0.109 0.121-0.16l0.32-0.32 0.2-0.32v-0.321l-0.161-0.32-0.199-0.199-0.359-0.16c-0.266-0.133-0.563-0.2-0.879-0.2h-0.082l-0.559-0.082 0.481-0.078c0.371-0.16 0.558-0.375 0.558-0.64 0-0.106-0.039-0.2-0.121-0.282-0.027-0.16-0.144-0.32-0.359-0.48-0.426-0.32-0.973-0.48-1.641-0.48-0.371 0-0.664 0.082-0.879 0.242l-0.039 0.078z" inkscape:connector-curvature="0"/>
      <path id="path278" style="fill-rule:evenodd;fill:#7d7368" d="m49.039 14.399c0.188-0.078 0.309-0.172 0.359-0.278h-0.078l-0.121 0.039-0.398 0.2-0.403 0.082-0.437-0.082c-0.16-0.079-0.242-0.239-0.242-0.481l-0.16-0.32-0.118-0.52 0.079-0.32 0.242-0.16h-0.039c-0.485 0-0.817 0.148-1 0.441l-0.121 0.36-0.04 0.199c0 0.215 0.161 0.426 0.477 0.64 0.32 0.188 0.656 0.293 1 0.321h0.484l0.278-0.039 0.238-0.082z" inkscape:connector-curvature="0"/>
      <path id="path280" style="fill-rule:evenodd;fill:#59534b" d="m45.52 10c0.535 0.106 0.933 0.305 1.199 0.602l0.64 0.558 0.161-0.121 0.039-0.121v-0.117c0-0.133-0.051-0.309-0.161-0.52l-0.839-1.082c-0.614-0.531-1.239-0.8-1.879-0.8l-0.758 0.121-0.524 0.199-0.16 0.082 0.364 0.277c0.105 0.028 0.171 0.082 0.199 0.161l0.437 0.281c0.16 0.082 0.297 0.16 0.403 0.242 0.132 0.078 0.425 0.156 0.879 0.238zm4.32 3.84c0-0.105-0.117-0.305-0.36-0.601-0.105-0.106-0.292-0.239-0.558-0.399l-0.121-0.078c-0.266-0.109-0.469-0.16-0.602-0.16-0.187 0-0.332 0.023-0.437 0.078l-0.242 0.16-0.082 0.32 0.121 0.52 0.16 0.359c0 0.215 0.082 0.36 0.242 0.442 0.078 0.05 0.227 0.078 0.437 0.078l0.403-0.078c0.211-0.055 0.344-0.121 0.398-0.2l0.121-0.042h0.078c0.293 0.082 0.442-0.04 0.442-0.36v-0.039zm0.48-3.48c0 0.16 0.118 0.359 0.36 0.601 0.293 0.266 0.586 0.465 0.879 0.598 0.347 0.187 0.64 0.281 0.882 0.281l0.2-0.078c0.132-0.137 0.199-0.297 0.199-0.481 0-0.136-0.051-0.269-0.16-0.402l-0.559-0.437-0.801-0.364-0.601-0.078c-0.184 0-0.321 0.051-0.399 0.16v0.2zm-1.519-2.559-0.762-0.039c-0.641 0-0.961 0.184-0.961 0.559v0.121l0.203 0.16 0.281 0.16 1.161 0.316 0.078 0.043c0.426 0.051 0.758 0.051 1 0l0.398-0.121c0.082-0.082 0.121-0.172 0.121-0.281v-0.117c-0.082-0.215-0.293-0.403-0.64-0.563-0.055-0.027-0.348-0.105-0.879-0.238z" inkscape:connector-curvature="0"/>
      <path id="path282" style="fill-rule:evenodd;fill:#9a8b7c" d="m23.52 10.84 0.16 0.281 0.558 0.797l2.762-0.316c0.238-0.082 0.398-0.176 0.48-0.281 0.079-0.082 0.122-0.227 0.122-0.442 0-0.238-0.067-0.426-0.204-0.558-0.132-0.133-0.293-0.243-0.476-0.321-0.617-0.187-1.563-0.281-2.844-0.281-0.371 0-0.625 0.082-0.758 0.242-0.082 0.024-0.121 0.09-0.121 0.199l0.321 0.68zm22.32 4c0.265-0.105 0.398-0.266 0.398-0.48v-0.039c0-0.188-0.078-0.336-0.238-0.442-0.238-0.183-0.602-0.277-1.078-0.277-0.508 0-0.844 0.117-1 0.359l-0.082 0.117c-0.028 0-0.039 0.043-0.039 0.121v0.082c0 0.239 0.121 0.426 0.359 0.559l0.078 0.039 0.563 0.16h0.199l0.398-0.039h0.161l0.281-0.16zm-15.039 0c-0.266-0.055-0.602-0.055-1 0l-0.563 0.039-0.039-0.238c0-0.106-0.027-0.172-0.078-0.199-0.109-0.11-0.359-0.188-0.762-0.243h-0.199c-0.375 0-0.601 0.106-0.68 0.321l-0.039 0.32c0 0.215 0.239 0.465 0.719 0.762 0.481 0.293 0.985 0.531 1.52 0.719 0.64 0.16 1.16 0.226 1.558 0.199 0.481 0 0.723-0.172 0.723-0.52l-0.039-0.359-0.32-0.442c-0.215-0.16-0.481-0.281-0.801-0.359zm10.719 3.359 0.039-0.039c0.16-0.082 0.242-0.214 0.242-0.398 0-0.188-0.094-0.336-0.281-0.441l-0.559-0.122h-0.039c-0.375 0-0.656 0.094-0.844 0.282l-0.078 0.281c0 0.211 0.094 0.359 0.281 0.437 0.133 0.106 0.344 0.161 0.641 0.161 0.266 0 0.465-0.055 0.598-0.161zm-4.52-1.039-0.078-0.121c0.156-0.453 0.039-0.758-0.363-0.918-0.239-0.109-0.664-0.136-1.278-0.082l-0.082-0.218-0.121 0.097c-0.156 0.16-0.238 0.336-0.238 0.524 0 0.398 0.172 0.664 0.519 0.797 0.243 0.16 0.575 0.203 1 0.121l0.641-0.2z" inkscape:connector-curvature="0"/>
      <path id="path284" style="fill-rule:evenodd;fill:#a6866d" d="m24.281 15.039c0.371 0.16 0.692 0.254 0.957 0.282 0.321 0.027 0.641-0.028 0.961-0.161 0.133-0.054 0.242-0.132 0.321-0.242 0.082-0.133 0.121-0.265 0.121-0.398l-0.082-0.281-0.039 0.16c-0.079 0.136-0.188 0.215-0.321 0.242-0.293 0.105-0.586 0.121-0.879 0.039-0.32-0.055-0.601-0.172-0.84-0.359-0.242-0.215-0.359-0.415-0.359-0.602l-0.16 0.16-0.082 0.563c0 0.211 0.094 0.371 0.281 0.476l0.121 0.121zm-3.48-3.199c-0.348 0-0.602 0.094-0.762 0.281-0.078 0.078-0.117 0.184-0.117 0.321 0 0.16 0.144 0.293 0.437 0.398 0.188 0.078 0.481 0.149 0.879 0.199 0.403 0.055 0.696 0.039 0.883-0.039 0.238-0.054 0.371-0.133 0.399-0.238l0.082-0.16v-0.043c0-0.184-0.243-0.36-0.723-0.52-0.399-0.133-0.758-0.199-1.078-0.199zm12.16 5.32c0.266 0.028 0.504 0 0.719-0.082 0.16-0.105 0.242-0.199 0.242-0.277 0.051-0.055 0.078-0.16 0.078-0.32 0-0.188-0.066-0.348-0.199-0.481l-0.121-0.082c-0.188-0.105-0.442-0.156-0.758-0.156h-0.32c-0.243 0.023-0.43 0.133-0.563 0.316l-0.078 0.364c0 0.183 0.094 0.332 0.277 0.437 0.055 0.055 0.231 0.133 0.524 0.242l0.199 0.039zm0.84 1.641c0 0.184 0.199 0.359 0.597 0.52 0.375 0.132 0.829 0.214 1.364 0.238 0.476 0.027 0.906-0.028 1.277-0.16 0.242-0.024 0.43-0.133 0.563-0.321l0.078-0.277c0-0.242-0.16-0.414-0.481-0.52-0.32-0.16-0.746-0.242-1.277-0.242-0.91 0-1.524 0.106-1.844 0.321-0.183 0.132-0.277 0.281-0.277 0.441zm-5.762-1.68 0.441-0.16c0.239-0.133 0.36-0.281 0.36-0.441 0-0.375-0.371-0.559-1.121-0.559-0.504 0-0.84 0.078-1 0.238l-0.078 0.282v0.039c0 0.215 0.121 0.386 0.359 0.519 0.188 0.106 0.426 0.133 0.719 0.082h0.32z" inkscape:connector-curvature="0"/>
      <path id="path286" style="fill-rule:evenodd;fill:#948a7d" d="m44.762 12.281 0.679-0.441c0.371-0.266 0.559-0.453 0.559-0.559l-0.121-0.32-0.039-0.043c-0.266 0.082-0.625 0.094-1.078 0.043l-0.364-0.043c-0.343-0.078-0.664-0.199-0.957-0.359-0.429-0.266-0.64-0.547-0.64-0.84 0-0.168 0.051-0.313 0.16-0.441-0.266 0.109-0.469 0.214-0.602 0.32l-0.082-0.117v-0.082l-0.398 0.48c-0.16 0.293-0.277 0.586-0.359 0.883l-0.122 0.398c0 0.348 0.122 0.641 0.364 0.879 0.183 0.16 0.371 0.282 0.558 0.36 0.532 0.187 1.215 0.269 2.039 0.242 0.563 0 1.039-0.082 1.442-0.242-0.293 0-0.641-0.039-1.039-0.118zm-1.684 0.118c-0.316-0.051-0.558-0.133-0.719-0.239l-0.16-0.16c-0.133-0.082-0.199-0.187-0.199-0.32 0-0.106 0.039-0.215 0.121-0.32 0.133-0.161 0.387-0.239 0.758-0.239 0.215 0 0.48 0.067 0.801 0.2l0.281 0.199c0.105 0.105 0.16 0.215 0.16 0.32 0 0.238-0.121 0.399-0.359 0.481-0.215 0.078-0.442 0.105-0.684 0.078zm5.203-2.278 0.52 0.039 0.679-0.16 0.2-0.082c-0.266 0-0.559-0.117-0.879-0.359l-0.641-0.758-0.601-0.16-0.278-0.16h-0.121c-0.215 0-0.348 0.039-0.398 0.121l-0.121 0.277-0.039-0.117v0.117l-0.043 0.16 0.64 0.84c0.426 0.16 0.789 0.242 1.082 0.242zm1.438 0.399-0.321 0.242-0.277 0.316-0.043 0.203c0 0.344 0.176 0.653 0.524 0.918 0.343 0.215 0.718 0.321 1.117 0.321 0.508-0.051 0.894-0.172 1.16-0.36l0.16-0.121c-0.266 0-0.547-0.093-0.84-0.277-0.398-0.215-0.746-0.43-1.039-0.641-0.32-0.242-0.48-0.386-0.48-0.441l0.039-0.16z" inkscape:connector-curvature="0"/>
      <path id="path288" style="fill-rule:evenodd;fill:#a3998a" d="m44.121 11.84c0-0.105-0.055-0.215-0.16-0.32l-0.281-0.199c-0.321-0.133-0.586-0.2-0.801-0.2-0.371 0-0.625 0.078-0.758 0.239-0.082 0.105-0.121 0.214-0.121 0.32 0 0.133 0.066 0.238 0.199 0.32l0.16 0.16c0.161 0.106 0.403 0.188 0.719 0.239 0.242 0.027 0.469 0 0.684-0.078 0.238-0.082 0.359-0.243 0.359-0.481zm-9.84 1.719 0.039-0.078-0.082 0.039c-0.293 0.027-0.519 0.148-0.679 0.359l-0.118 0.36v0.203c0 0.32 0.161 0.586 0.481 0.797l0.519 0.203 0.637 0.078 0.563-0.039h0.121l0.398-0.2 0.039-0.042c-0.187 0.027-0.387 0.027-0.597 0l-0.043-0.04c-0.426 0-0.786-0.105-1.079-0.32-0.375-0.211-0.558-0.465-0.558-0.758 0-0.16 0.078-0.32 0.238-0.48l0.121-0.082z" inkscape:connector-curvature="0"/>
      <path id="path290" style="fill-rule:evenodd;fill:#7d7368" d="m45.801 12.399c0.691 0.027 1.187-0.078 1.48-0.321 0.184-0.183 0.281-0.57 0.281-1.16v-0.117l-0.042 0.117-0.161 0.082-0.636-0.519c-0.27-0.293-0.668-0.492-1.203-0.602-0.508-0.133-0.934-0.305-1.282-0.519l-0.636-0.399-0.364-0.281 0.16-0.078-0.398 0.117c-0.508 0.187-0.762 0.387-0.762 0.602l0.043 0.078v0.082l0.078 0.121c0.137-0.11 0.336-0.215 0.602-0.321-0.106 0.125-0.16 0.27-0.16 0.438 0 0.293 0.215 0.574 0.64 0.844 0.293 0.156 0.614 0.277 0.961 0.359l0.36 0.039c0.453 0.051 0.812 0.039 1.078-0.039l0.039 0.039 0.121 0.32c0 0.106-0.188 0.293-0.559 0.559l-0.679 0.441c0.398 0.079 0.746 0.118 1.039 0.118zm4.519-2.239c-0.265 0.051-0.441 0.133-0.519 0.239l-0.082 0.121-0.039 0.16c0 0.055 0.16 0.199 0.48 0.441 0.293 0.211 0.641 0.426 1.039 0.641 0.297 0.184 0.574 0.277 0.84 0.277 0.32 0.028 0.523-0.121 0.602-0.437-0.051 0.051-0.118 0.078-0.2 0.078-0.242 0.027-0.535-0.055-0.879-0.238-0.296-0.137-0.589-0.336-0.882-0.602-0.239-0.293-0.36-0.492-0.36-0.601v-0.079zm-0.398-0.32c0.316-0.078 0.476-0.254 0.476-0.519 0-0.11-0.066-0.254-0.199-0.442l-0.398 0.121c-0.293 0.051-0.629 0.039-1-0.043h-0.082l-0.559-0.156 0.641 0.758c0.32 0.242 0.613 0.359 0.879 0.359l0.242-0.078z" inkscape:connector-curvature="0"/>
      <path id="path292" style="fill-rule:evenodd;fill:#59534b" d="m36.199 14.68h0.121c0.133 0.027 0.305 0.082 0.52 0.16 0.187 0.027 0.32-0.066 0.398-0.281 0.137-0.399-0.09-0.785-0.679-1.16-0.266-0.16-0.731-0.239-1.399-0.239-0.719 0.028-1.066 0.2-1.039 0.52 0.504 0 0.879 0.133 1.117 0.398 0.16 0.137 0.282 0.282 0.364 0.442 0.105 0.105 0.304 0.16 0.597 0.16z" inkscape:connector-curvature="0"/>
      <path id="path294" style="fill-rule:evenodd;fill:#59534b" d="m38.719 16.68c0.16-0.293 0.054-0.629-0.321-1-0.238-0.266-0.636-0.426-1.199-0.481-0.558-0.054-0.972 0.04-1.238 0.282 0.078 0.187 0.426 0.332 1.039 0.437 0.43 0.071 0.652 0.262 0.66 0.582 0.11 0.051 0.274 0.176 0.5 0.379 0.238 0.133 0.426 0.067 0.559-0.199z" inkscape:connector-curvature="0"/>
      <path id="path296" style="fill-rule:evenodd;fill:#59534b" d="m31.84 14.84h0.199c-0.133-0.398-0.266-0.668-0.398-0.801-0.161-0.211-0.414-0.371-0.762-0.48-0.348-0.106-0.734-0.133-1.16-0.078-0.559 0.078-0.797 0.304-0.719 0.679 0.746 0.051 1.227 0.106 1.441 0.161 0.481 0.078 0.946 0.253 1.399 0.519z" inkscape:connector-curvature="0"/>
      <path id="path298" style="fill-rule:evenodd;fill:#59534b" d="m25.801 14.078h-0.481c0.188 0.188 0.492 0.254 0.918 0.203-0.133-0.667-0.613-0.976-1.437-0.921 0.051 0.347 0.387 0.586 1 0.718z" inkscape:connector-curvature="0"/>
      <path id="path300" style="fill-rule:evenodd;fill:#7d7368" d="m33.039 9.281v0.079c0.082 0 0.348-0.028 0.801-0.082 0.082-0.774-0.188-1.172-0.801-1.2-0.641-0.027-0.961 0.161-0.961 0.563 0 0.398 0.32 0.613 0.961 0.64z" inkscape:connector-curvature="0"/>
      <path id="path302" style="fill-rule:evenodd;fill:#948a7d" d="m57.559 16.121-0.118-0.043c0.106-0.027 0.282-0.05 0.52-0.078 0.238-0.054 0.398-0.121 0.48-0.199 0.161-0.16 0.2-0.348 0.118-0.562-0.079-0.211-0.211-0.36-0.399-0.438-0.348-0.082-0.785-0.105-1.32-0.082-0.641 0.027-1 0.16-1.078 0.402-0.137 0.426 0.066 0.692 0.597 0.797 0.321 0.055 0.719 0.121 1.2 0.203z" inkscape:connector-curvature="0"/>
      <path id="path304" style="fill-rule:evenodd;fill:#948a7d" d="m59.461 15.899-0.102 0.019c0.243 0.028 0.469-0.039 0.68-0.199 0.242-0.184 0.227-0.371-0.039-0.559-0.055-0.054-0.215-0.054-0.48 0-0.266 0.028-0.415 0.067-0.442 0.121-0.105 0.133-0.09 0.278 0.043 0.438 0.106 0.129 0.219 0.187 0.34 0.18z" inkscape:connector-curvature="0"/>
      <path id="path306" style="fill-rule:evenodd;fill:#948a7d" d="m58.82 14.078c0.477-0.043 0.965-0.23 1.457-0.558 0.645-0.426 0.711-0.852 0.203-1.281-0.402-0.344-1-0.477-1.8-0.399-0.746 0.078-1.348 0.293-1.801 0.641-0.613 0.398-0.492 0.785 0.359 1.16 0.582 0.254 1.106 0.402 1.582 0.437z" inkscape:connector-curvature="0"/>
      <path id="path308" style="fill-rule:evenodd;fill:#7d7368" d="m59.719 13.68h0.043c0.293 0 0.558-0.078 0.797-0.238 0.269-0.188 0.402-0.43 0.402-0.723 0-0.426-0.188-0.68-0.563-0.758-0.105-0.027-0.453-0.043-1.039-0.043-0.64 0-1.171 0.067-1.597 0.203-0.321 0.078-0.563 0.16-0.723 0.239-0.316 0.132-0.48 0.293-0.48 0.48 0.136 0 0.453-0.012 0.961-0.039 0.402-0.027 0.718-0.016 0.96 0.039 0.106 0.027 0.254 0.066 0.442 0.121 0.156 0.024 0.266 0.106 0.316 0.238 0.055 0.188 0.094 0.321 0.121 0.403 0.028 0.078 0.149 0.105 0.36 0.078z" inkscape:connector-curvature="0"/>
      <path id="path310" style="fill-rule:evenodd;fill:#7d7368" d="m57.762 15.762-0.203 0.117-0.161 0.281c0.641 0 1.055-0.132 1.243-0.398 0.238-0.375 0.082-0.684-0.481-0.922-0.265-0.133-0.719-0.199-1.359-0.199-0.746-0.027-1.106 0.105-1.082 0.398 0.613 0.055 0.976 0.106 1.082 0.16 0.078 0.028 0.226 0.149 0.437 0.36 0.137 0.137 0.309 0.203 0.524 0.203z" inkscape:connector-curvature="0"/>
      <path id="path312" style="fill-rule:evenodd;fill:#7d7368" d="m59.84 15.602 0.082-0.043c0.156 0.027 0.25-0.012 0.277-0.117 0.028-0.11-0.027-0.203-0.16-0.282-0.105-0.109-0.344-0.109-0.719 0 0.028 0.161 0.2 0.266 0.52 0.321v0.121z" inkscape:connector-curvature="0"/>
      <path id="path314" style="fill-rule:evenodd;fill:#59534b" d="m60.398 13.121 0.442-0.281c0.082-0.695-0.399-1.039-1.442-1.039-0.32 0-0.636 0.039-0.957 0.117-0.535 0-0.921 0.055-1.16 0.16 0.051 0.137 0.266 0.203 0.641 0.203h0.758c0.347 0 0.695 0.145 1.043 0.438 0.078 0.055 0.211 0.094 0.398 0.121 0.051 0.027 0.078 0.078 0.078 0.16 0.028 0.078 0.094 0.121 0.199 0.121z" inkscape:connector-curvature="0"/>
      <path id="path316" style="fill-rule:evenodd;fill:#59534b" d="m58.32 15.559h-0.082c0.11 0.137 0.215 0.16 0.321 0.082 0.109-0.106 0.16-0.227 0.16-0.36 0-0.32-0.16-0.519-0.481-0.601-0.211-0.078-0.504-0.094-0.879-0.039-0.257 0.043-0.464 0.07-0.621 0.078 0.352 0.016 0.61 0.055 0.782 0.121 0.132 0.027 0.265 0.149 0.402 0.359 0.156 0.188 0.293 0.309 0.398 0.36z" inkscape:connector-curvature="0"/>
      <path id="path318" style="fill-rule:evenodd;fill:#59534b" d="m59.922 15.36h-0.121c0.133 0.082 0.32 0.093 0.558 0.039 0-0.16-0.121-0.239-0.359-0.239h-0.52c0.055 0.079 0.2 0.145 0.442 0.2z" inkscape:connector-curvature="0"/>
      <path id="path320" style="fill-rule:evenodd;fill:#7d7368" d="m23.199 9.879c-0.051 0.188 0.149 0.309 0.602 0.36 0.238 0.027 0.547 0.054 0.918 0.082l0.883 0.16c0.183 0.027 0.41 0.148 0.679 0.359 0.078 0.027 0.239 0.039 0.481 0.039 0.211 0.055 0.293 0.16 0.238 0.32l0.039-0.039c0.055 0.188 0.242 0.254 0.563 0.2 0.05-0.375-0.067-0.735-0.364-1.082-0.293-0.372-0.636-0.571-1.039-0.598-0.746-0.133-1.746-0.066-3 0.199z" inkscape:connector-curvature="0"/>
      <path id="path322" style="fill-rule:evenodd;fill:#635d54" d="m33.801 8.918 0.039-0.199c0.055-0.371-0.012-0.586-0.199-0.641-0.028-0.027-0.133-0.039-0.321-0.039-0.187 0-0.308 0.012-0.359 0.039-0.293 0.188-0.266 0.36 0.078 0.52 0.188 0.109 0.441 0.215 0.762 0.32z" inkscape:connector-curvature="0"/>
      <path id="path324" style="fill-rule:evenodd;fill:#59534b" d="m25.559 9.52c-0.454-0.055-0.852-0.016-1.2 0.121v0.078c0.161 0.055 0.426 0.066 0.801 0.043 0.348-0.027 0.602-0.016 0.762 0.039 0.105 0.027 0.266 0.145 0.476 0.359 0.188 0.215 0.364 0.348 0.524 0.399l0.039 0.203c0.051 0.133 0.184 0.223 0.398 0.277 0.188 0.028 0.309-0.027 0.36-0.16l-0.16-0.48c-0.184-0.321-0.454-0.532-0.797-0.637-0.723-0.16-1.121-0.242-1.203-0.242z" inkscape:connector-curvature="0"/>
      <path id="path326" style="fill-rule:evenodd;fill:#a6866d" d="m38.039 11.078-0.238-0.199c0.347 0.188 0.734 0.121 1.16-0.199 0.398-0.32 0.414-0.641 0.039-0.961-0.188-0.156-0.586-0.266-1.199-0.316-0.613-0.028-1 0.023-1.16 0.16-0.293 0.238-0.188 0.543 0.32 0.918 0.266 0.187 0.625 0.386 1.078 0.597z" inkscape:connector-curvature="0"/>
      <path id="path328" style="fill-rule:evenodd;fill:#a6866d" d="m37 11.039c-0.105-0.078-0.238-0.121-0.398-0.121-0.161 0-0.282 0.055-0.364 0.16-0.133 0.161-0.078 0.309 0.16 0.442 0.215 0.133 0.414 0.176 0.602 0.121 0.215-0.082 0.348-0.242 0.398-0.481 0.028-0.265-0.105-0.375-0.398-0.32v0.199z" inkscape:connector-curvature="0"/>
      <path id="path330" style="fill-rule:evenodd;fill:#a6866d" d="m32.398 10.961-0.16-0.082c0.11 0 0.309 0.016 0.602 0.039 0.265 0 0.426-0.051 0.48-0.156 0.133-0.242 0-0.441-0.398-0.602-0.188-0.054-0.469-0.066-0.844-0.039-0.398 0.024-0.613 0.106-0.637 0.239 0 0.293 0.321 0.492 0.957 0.601z" inkscape:connector-curvature="0"/>
      <path id="path332" style="fill-rule:evenodd;fill:#a6866d" d="m30.461 10-0.223-0.039c0.321 0.211 0.617 0.199 0.883-0.043 0.266-0.238 0.199-0.453-0.199-0.64-0.375-0.184-0.641-0.118-0.801 0.203-0.117 0.258-0.004 0.429 0.34 0.519z" inkscape:connector-curvature="0"/>
      <path id="path334" style="fill-rule:evenodd;fill:#a6866d" d="m29.801 10.961c0.133 0.051 0.265 0.024 0.398-0.082 0.16-0.078 0.16-0.187 0-0.32-0.078-0.133-0.32-0.145-0.719-0.039-0.05 0.281 0.055 0.426 0.321 0.441z" inkscape:connector-curvature="0"/>
      <path id="path336" style="fill-rule:evenodd;fill:#a6866d" d="m42.039 8.36-0.199-0.121c0.238 0.027 0.48-0.012 0.719-0.118 0.269-0.132 0.32-0.32 0.16-0.558-0.106-0.137-0.414-0.188-0.918-0.16-0.453 0.023-0.789 0.078-1 0.16-0.082 0.265 0.051 0.476 0.398 0.636 0.293 0.133 0.574 0.188 0.84 0.161z" inkscape:connector-curvature="0"/>
      <path id="path338" style="fill-rule:evenodd;fill:#9a8b7c" d="m35 8.641-0.398-0.16c0.132 0.187 0.546 0.281 1.238 0.281 0.695 0.023 1.133-0.043 1.32-0.199 0.215-0.188 0.32-0.442 0.32-0.762-0.027-0.293-0.16-0.535-0.402-0.719-0.211-0.16-0.719-0.242-1.519-0.242-0.797 0-1.321 0.082-1.559 0.242-0.453 0.293-0.48 0.598-0.078 0.918 0.078 0.078 0.437 0.293 1.078 0.641z" inkscape:connector-curvature="0"/>
      <path id="path340" style="fill-rule:evenodd;fill:#7d7368" d="m37.121 8.078-0.082 0.203c0.481 0.051 0.629-0.226 0.441-0.839-0.082-0.27-0.187-0.442-0.32-0.52-0.082-0.027-0.293-0.043-0.64-0.043-0.586-0.027-1.051-0.039-1.399-0.039-0.562 0-0.988 0.082-1.281 0.238 0.238 0.137 0.707 0.254 1.398 0.364 0.297 0.078 0.774 0.16 1.442 0.238 0.105 0.055 0.254 0.187 0.441 0.398z" inkscape:connector-curvature="0"/>
      <path id="path342" style="fill-rule:evenodd;fill:#808043" d="m47.82 18.68c0.215-0.008 0.5-0.086 0.86-0.238 0.425-0.161 0.668-0.321 0.718-0.481-0.691 0.078-1.187 0.117-1.48 0.117h-2.078c-1.172 0-1.828-0.011-1.961-0.039-0.133-0.027-0.613-0.304-1.438-0.84-0.347-0.187-0.789-0.347-1.32-0.48-0.933-0.211-1.414-0.32-1.441-0.32-0.266-0.051-0.602-0.293-1-0.719-0.375-0.375-0.735-0.586-1.078-0.641 0.21 0.106 0.41 0.282 0.597 0.52 0.082 0.16 0.227 0.387 0.442 0.68 0.238 0.296 0.507 0.496 0.8 0.601 0.133 0.055 0.481 0.133 1.039 0.238 0.481 0.11 0.918 0.297 1.321 0.563 0.238 0.16 0.625 0.426 1.16 0.801 0.398 0.265 1.16 0.371 2.277 0.32l2.762-0.082h-0.18z" inkscape:connector-curvature="0"/>
      <path id="path344" style="fill-rule:evenodd;fill:#7a7a38" d="m57.398 12h0.082v-0.039l-2.039-3.64-0.961-2.243c-0.105-0.16-0.16-0.277-0.16-0.359-0.32-0.746-0.547-1.117-0.679-1.117-0.137 0-0.203 0.078-0.203 0.238-0.051 0.082-0.051 0.172 0 0.281l0.121 0.559c-0.188-0.559-0.321-0.84-0.399-0.84-0.133 0-0.199 0.094-0.199 0.281l1 3.68c0.879 2.027 1.465 3.215 1.758 3.559l0.16-0.079 0.043-0.121-1.043-2.32c-0.559-1.305-0.879-2.254-0.957-2.84l-0.16-0.719c0.293 0.879 0.773 1.868 1.437 2.958 0.961 1.707 1.696 2.628 2.199 2.761z" inkscape:connector-curvature="0"/>
      <path id="path346" style="fill-rule:evenodd;fill:#7a7a38" d="m20.641 13.078c0.078 0 0.121-0.117 0.121-0.359l-0.801-2.199c-0.481-1.547-0.773-2.641-0.883-3.281v-1.239c0-0.082-0.023-0.121-0.078-0.121l-0.121-0.039c-0.16 0-0.266 0.121-0.32 0.359l-0.039-0.199c0-0.082-0.028-0.121-0.079-0.121l-0.121-0.078c-0.242 0-0.398 0.117-0.48 0.359-0.106-0.109-0.188-0.16-0.238-0.16-0.321 0-0.469 0.465-0.442 1.399l0.078 1.363c0.082 0.531 0.188 1.012 0.321 1.437 0.214 0.586 0.453 1.055 0.722 1.403h0.039c0.078-0.242 0.039-0.684-0.121-1.321v-0.042l0.242 0.601c0.321 1.066 0.598 1.668 0.84 1.801v-1.039l-0.679-2.922c-0.11-0.531-0.161-0.984-0.161-1.359 0-0.258 0.02-0.465 0.059-0.622-0.035 0.149-0.027 0.317 0.02 0.5 0 0.454 0.039 0.907 0.121 1.364 0 0.133 0.265 0.918 0.8 2.359 0.133 0.797 0.414 1.438 0.84 1.918 0.16 0.16 0.278 0.238 0.36 0.238z" inkscape:connector-curvature="0"/>
      <path id="path348" style="fill-rule:evenodd;fill:#7a7a38" d="m68.238 10.762c-0.16-0.375-0.238-1-0.238-1.883l-2.281-1.719c0.054 0.375 0.015 0.946-0.117 1.719-0.11 0.856-0.161 1.453-0.161 1.801 0.106 1.332 0.414 2.414 0.918 3.238 0.028-0.719 0.028-1.679 0-2.879 0.055-0.961 0.282-1.851 0.68-2.679 0 0.718 0.016 1.242 0.039 1.558 0.027 0.617 0.176 1.11 0.442 1.481 0.242 0.347 0.519 0.547 0.839 0.601 0.563 0.106 0.907 0.188 1.043 0.239-0.617-0.586-1.004-1.079-1.164-1.477z" inkscape:connector-curvature="0"/>
      <path id="path350" style="fill-rule:evenodd;fill:#7a7a38" d="m65.199 6.762 0.922-0.121c-0.933-0.426-1.519-0.227-1.762 0.598-0.32 1.093-0.652 1.707-1 1.839 0.641 0.297 1.188 0.11 1.641-0.558 0.48-0.641 0.547-1.227 0.199-1.758z" inkscape:connector-curvature="0"/>
      <path id="path352" style="fill-rule:evenodd;fill:#7a7a38" d="m47.879 16.719c0.723-0.266 1.293-0.773 1.723-1.52 0.312-0.562 0.484-1.14 0.519-1.738 0.035 3.465 0.434 5.883 1.199 7.258 0-0.613 0.012-2 0.039-4.16 0.028-1.731 0.016-3.117-0.039-4.16-0.375 0.027-0.773-0.012-1.199-0.118-0.453-0.136-0.773-0.32-0.961-0.562-0.082 0.027-0.121 0.055-0.121 0.082 0.027 0.078 0.027 0.133 0 0.16l0.16 0.399c0 1.066-0.051 1.851-0.16 2.359-0.187 0.746-0.574 1.414-1.16 2z" inkscape:connector-curvature="0"/>
      <path id="path354" style="fill-rule:evenodd;fill:#7a7a38" d="m29.441 19.399c-0.429 0.933-0.722 1.601-0.882 2 0.613-0.348 1.136-1.078 1.562-2.2 0.399-1.066 0.531-1.96 0.399-2.679-0.774-0.106-1.305-0.293-1.598-0.559h-0.281c0.105 0.184 0.171 0.465 0.199 0.84 0 0.398-0.067 0.691-0.199 0.879-0.215 0.293-0.52 0.465-0.922 0.519-0.664 0.055-1.024 0.094-1.078 0.122 1.812 0.32 2.879-0.028 3.199-1.04 0.082 0.559-0.055 1.266-0.399 2.118z" inkscape:connector-curvature="0"/>
      <path id="path356" style="fill-rule:evenodd;fill:#878745" d="m23.719 11.399c0.082 0.586-0.067 1.109-0.438 1.562-0.187 0.211-0.613 0.57-1.281 1.078 0.668 0.028 1.172-0.105 1.52-0.398 0.242-0.188 0.613-0.574 1.121-1.16 0.054 0.558 0.011 1.199-0.121 1.918-0.106 0.8-0.282 1.441-0.52 1.922 0.535-0.559 0.934-1.282 1.199-2.161 0.293-0.879 0.375-1.707 0.242-2.48-0.269-0.106-0.707-0.16-1.32-0.16l-0.402-0.121z" inkscape:connector-curvature="0"/>
      <path id="path358" style="fill-rule:evenodd;fill:#808043" d="m62.961 15.078c0.211 0 0.344-0.066 0.398-0.199 0.106-0.133 0.106-0.414 0-0.84-0.027-0.133-0.121-0.293-0.281-0.48-0.133-0.184-0.226-0.332-0.277-0.438-0.055-0.215-0.043-0.586 0.039-1.121-0.028-0.453-0.254-0.746-0.68-0.879-0.215-0.082-0.656-0.136-1.32-0.16-0.242-0.027-0.535-0.148-0.879-0.359-0.305-0.172-0.488-0.348-0.543-0.524 0.023 0.231 0.098 0.457 0.219 0.684 0.16 0.293 0.386 0.492 0.683 0.598 0.106 0.027 0.399 0.054 0.879 0.082 0.348 0.027 0.613 0.132 0.801 0.32 0.211 0.211 0.293 0.492 0.238 0.84-0.133 0.453-0.144 0.758-0.039 0.918 0.055 0.082 0.16 0.176 0.321 0.281 0.105 0.051 0.171 0.172 0.199 0.359v0.801l-0.16-0.082c0.027 0.133 0.16 0.199 0.402 0.199z" inkscape:connector-curvature="0"/>
    </g>
  </g>
<metadata><rdf:RDF><cc:Work><dc:format>image/svg+xml</dc:format><dc:type rdf:resource="http://purl.org/dc/dcmitype/StillImage"/><cc:license rdf:resource="http://creativecommons.org/licenses/publicdomain/"/><dc:publisher><cc:Agent rdf:about="http://openclipart.org/"><dc:title>Openclipart</dc:title></cc:Agent></dc:publisher></cc:Work><cc:License rdf:about="http://creativecommons.org/licenses/publicdomain/"><cc:permits rdf:resource="http://creativecommons.org/ns#Reproduction"/><cc:permits rdf:resource="http://creativecommons.org/ns#Distribution"/><cc:permits rdf:resource="http://creativecommons.org/ns#DerivativeWorks"/></cc:License></rdf:RDF></metadata></svg>
